<svg xmlns="http://www.w3.org/2000/svg" version="1.1" xmlns:xlink="http://www.w3.org/1999/xlink" xmlns:svgjs="http://svgjs.dev/svgjs" viewBox="0 0 800 800" opacity="0.25" width="800" height="800"><g stroke-width="0.75" stroke="hsla(231, 48%, 48%, 1)" fill="none"><circle r="0.8157894736842105" cx="0" cy="0" fill="hsla(231, 48%, 48%, 1)" stroke="none"></circle><circle r="0.8157894736842105" cx="57.142857142857146" cy="0" fill="hsla(231, 48%, 48%, 1)" stroke="none"></circle><circle r="0.8157894736842105" cx="114.28571428571429" cy="0" fill="hsla(231, 48%, 48%, 1)" stroke="none"></circle><circle r="0.8157894736842105" cx="171.42857142857144" cy="0" fill="hsla(231, 48%, 48%, 1)" stroke="none"></circle><circle r="0.8157894736842105" cx="228.57142857142858" cy="0" fill="hsla(231, 48%, 48%, 1)" stroke="none"></circle><circle r="0.8157894736842105" cx="285.7142857142857" cy="0" fill="hsla(231, 48%, 48%, 1)" stroke="none"></circle><circle r="0.8157894736842105" cx="342.8571428571429" cy="0" fill="hsla(231, 48%, 48%, 1)" stroke="none"></circle><circle r="0.8157894736842105" cx="400.00000000000006" cy="0" fill="hsla(231, 48%, 48%, 1)" stroke="none"></circle><circle r="0.8157894736842105" cx="457.1428571428572" cy="0" fill="hsla(231, 48%, 48%, 1)" stroke="none"></circle><circle r="0.8157894736842105" cx="514.2857142857143" cy="0" fill="hsla(231, 48%, 48%, 1)" stroke="none"></circle><circle r="0.8157894736842105" cx="571.4285714285714" cy="0" fill="hsla(231, 48%, 48%, 1)" stroke="none"></circle><circle r="0.8157894736842105" cx="628.5714285714286" cy="0" fill="hsla(231, 48%, 48%, 1)" stroke="none"></circle><circle r="0.8157894736842105" cx="685.7142857142857" cy="0" fill="hsla(231, 48%, 48%, 1)" stroke="none"></circle><circle r="0.8157894736842105" cx="742.8571428571428" cy="0" fill="hsla(231, 48%, 48%, 1)" stroke="none"></circle><circle r="0.8157894736842105" cx="799.9999999999999" cy="0" fill="hsla(231, 48%, 48%, 1)" stroke="none"></circle><circle r="0.8157894736842105" cx="0" cy="66.66666666666667" fill="hsla(231, 48%, 48%, 1)" stroke="none"></circle><circle r="0.8157894736842105" cx="57.142857142857146" cy="66.66666666666667" fill="hsla(231, 48%, 48%, 1)" stroke="none"></circle><circle r="0.8157894736842105" cx="114.28571428571429" cy="66.66666666666667" fill="hsla(231, 48%, 48%, 1)" stroke="none"></circle><circle r="0.8157894736842105" cx="171.42857142857144" cy="66.66666666666667" fill="hsla(231, 48%, 48%, 1)" stroke="none"></circle><circle r="0.8157894736842105" cx="228.57142857142858" cy="66.66666666666667" fill="hsla(231, 48%, 48%, 1)" stroke="none"></circle><circle r="0.8157894736842105" cx="285.7142857142857" cy="66.66666666666667" fill="hsla(231, 48%, 48%, 1)" stroke="none"></circle><circle r="0.8157894736842105" cx="342.8571428571429" cy="66.66666666666667" fill="hsla(231, 48%, 48%, 1)" stroke="none"></circle><circle r="0.8157894736842105" cx="400.00000000000006" cy="66.66666666666667" fill="hsla(231, 48%, 48%, 1)" stroke="none"></circle><circle r="0.8157894736842105" cx="457.1428571428572" cy="66.66666666666667" fill="hsla(231, 48%, 48%, 1)" stroke="none"></circle><circle r="0.8157894736842105" cx="514.2857142857143" cy="66.66666666666667" fill="hsla(231, 48%, 48%, 1)" stroke="none"></circle><circle r="0.8157894736842105" cx="571.4285714285714" cy="66.66666666666667" fill="hsla(231, 48%, 48%, 1)" stroke="none"></circle><circle r="0.8157894736842105" cx="628.5714285714286" cy="66.66666666666667" fill="hsla(231, 48%, 48%, 1)" stroke="none"></circle><circle r="0.8157894736842105" cx="685.7142857142857" cy="66.66666666666667" fill="hsla(231, 48%, 48%, 1)" stroke="none"></circle><circle r="0.8157894736842105" cx="742.8571428571428" cy="66.66666666666667" fill="hsla(231, 48%, 48%, 1)" stroke="none"></circle><circle r="0.8157894736842105" cx="799.9999999999999" cy="66.66666666666667" fill="hsla(231, 48%, 48%, 1)" stroke="none"></circle><circle r="0.8157894736842105" cx="0" cy="133.33333333333334" fill="hsla(231, 48%, 48%, 1)" stroke="none"></circle><circle r="0.8157894736842105" cx="57.142857142857146" cy="133.33333333333334" fill="hsla(231, 48%, 48%, 1)" stroke="none"></circle><circle r="0.8157894736842105" cx="114.28571428571429" cy="133.33333333333334" fill="hsla(231, 48%, 48%, 1)" stroke="none"></circle><circle r="0.8157894736842105" cx="171.42857142857144" cy="133.33333333333334" fill="hsla(231, 48%, 48%, 1)" stroke="none"></circle><circle r="0.8157894736842105" cx="228.57142857142858" cy="133.33333333333334" fill="hsla(231, 48%, 48%, 1)" stroke="none"></circle><circle r="0.8157894736842105" cx="285.7142857142857" cy="133.33333333333334" fill="hsla(231, 48%, 48%, 1)" stroke="none"></circle><circle r="0.8157894736842105" cx="342.8571428571429" cy="133.33333333333334" fill="hsla(231, 48%, 48%, 1)" stroke="none"></circle><circle r="0.8157894736842105" cx="400.00000000000006" cy="133.33333333333334" fill="hsla(231, 48%, 48%, 1)" stroke="none"></circle><circle r="0.8157894736842105" cx="457.1428571428572" cy="133.33333333333334" fill="hsla(231, 48%, 48%, 1)" stroke="none"></circle><circle r="0.8157894736842105" cx="514.2857142857143" cy="133.33333333333334" fill="hsla(231, 48%, 48%, 1)" stroke="none"></circle><circle r="0.8157894736842105" cx="571.4285714285714" cy="133.33333333333334" fill="hsla(231, 48%, 48%, 1)" stroke="none"></circle><circle r="0.8157894736842105" cx="628.5714285714286" cy="133.33333333333334" fill="hsla(231, 48%, 48%, 1)" stroke="none"></circle><circle r="0.8157894736842105" cx="685.7142857142857" cy="133.33333333333334" fill="hsla(231, 48%, 48%, 1)" stroke="none"></circle><circle r="0.8157894736842105" cx="742.8571428571428" cy="133.33333333333334" fill="hsla(231, 48%, 48%, 1)" stroke="none"></circle><circle r="0.8157894736842105" cx="799.9999999999999" cy="133.33333333333334" fill="hsla(231, 48%, 48%, 1)" stroke="none"></circle><circle r="0.8157894736842105" cx="0" cy="200" fill="hsla(231, 48%, 48%, 1)" stroke="none"></circle><circle r="0.8157894736842105" cx="57.142857142857146" cy="200" fill="hsla(231, 48%, 48%, 1)" stroke="none"></circle><circle r="0.8157894736842105" cx="114.28571428571429" cy="200" fill="hsla(231, 48%, 48%, 1)" stroke="none"></circle><circle r="0.8157894736842105" cx="171.42857142857144" cy="200" fill="hsla(231, 48%, 48%, 1)" stroke="none"></circle><circle r="0.8157894736842105" cx="228.57142857142858" cy="200" fill="hsla(231, 48%, 48%, 1)" stroke="none"></circle><circle r="0.8157894736842105" cx="285.7142857142857" cy="200" fill="hsla(231, 48%, 48%, 1)" stroke="none"></circle><circle r="0.8157894736842105" cx="342.8571428571429" cy="200" fill="hsla(231, 48%, 48%, 1)" stroke="none"></circle><circle r="0.8157894736842105" cx="400.00000000000006" cy="200" fill="hsla(231, 48%, 48%, 1)" stroke="none"></circle><circle r="0.8157894736842105" cx="457.1428571428572" cy="200" fill="hsla(231, 48%, 48%, 1)" stroke="none"></circle><circle r="0.8157894736842105" cx="514.2857142857143" cy="200" fill="hsla(231, 48%, 48%, 1)" stroke="none"></circle><circle r="0.8157894736842105" cx="571.4285714285714" cy="200" fill="hsla(231, 48%, 48%, 1)" stroke="none"></circle><circle r="0.8157894736842105" cx="628.5714285714286" cy="200" fill="hsla(231, 48%, 48%, 1)" stroke="none"></circle><circle r="0.8157894736842105" cx="685.7142857142857" cy="200" fill="hsla(231, 48%, 48%, 1)" stroke="none"></circle><circle r="0.8157894736842105" cx="742.8571428571428" cy="200" fill="hsla(231, 48%, 48%, 1)" stroke="none"></circle><circle r="0.8157894736842105" cx="799.9999999999999" cy="200" fill="hsla(231, 48%, 48%, 1)" stroke="none"></circle><circle r="0.8157894736842105" cx="0" cy="266.6666666666667" fill="hsla(231, 48%, 48%, 1)" stroke="none"></circle><circle r="0.8157894736842105" cx="57.142857142857146" cy="266.6666666666667" fill="hsla(231, 48%, 48%, 1)" stroke="none"></circle><circle r="0.8157894736842105" cx="114.28571428571429" cy="266.6666666666667" fill="hsla(231, 48%, 48%, 1)" stroke="none"></circle><circle r="0.8157894736842105" cx="171.42857142857144" cy="266.6666666666667" fill="hsla(231, 48%, 48%, 1)" stroke="none"></circle><circle r="0.8157894736842105" cx="228.57142857142858" cy="266.6666666666667" fill="hsla(231, 48%, 48%, 1)" stroke="none"></circle><circle r="0.8157894736842105" cx="285.7142857142857" cy="266.6666666666667" fill="hsla(231, 48%, 48%, 1)" stroke="none"></circle><circle r="0.8157894736842105" cx="342.8571428571429" cy="266.6666666666667" fill="hsla(231, 48%, 48%, 1)" stroke="none"></circle><circle r="0.8157894736842105" cx="400.00000000000006" cy="266.6666666666667" fill="hsla(231, 48%, 48%, 1)" stroke="none"></circle><circle r="0.8157894736842105" cx="457.1428571428572" cy="266.6666666666667" fill="hsla(231, 48%, 48%, 1)" stroke="none"></circle><circle r="0.8157894736842105" cx="514.2857142857143" cy="266.6666666666667" fill="hsla(231, 48%, 48%, 1)" stroke="none"></circle><circle r="0.8157894736842105" cx="571.4285714285714" cy="266.6666666666667" fill="hsla(231, 48%, 48%, 1)" stroke="none"></circle><circle r="0.8157894736842105" cx="628.5714285714286" cy="266.6666666666667" fill="hsla(231, 48%, 48%, 1)" stroke="none"></circle><circle r="0.8157894736842105" cx="685.7142857142857" cy="266.6666666666667" fill="hsla(231, 48%, 48%, 1)" stroke="none"></circle><circle r="0.8157894736842105" cx="742.8571428571428" cy="266.6666666666667" fill="hsla(231, 48%, 48%, 1)" stroke="none"></circle><circle r="0.8157894736842105" cx="799.9999999999999" cy="266.6666666666667" fill="hsla(231, 48%, 48%, 1)" stroke="none"></circle><circle r="0.8157894736842105" cx="0" cy="333.33333333333337" fill="hsla(231, 48%, 48%, 1)" stroke="none"></circle><circle r="0.8157894736842105" cx="57.142857142857146" cy="333.33333333333337" fill="hsla(231, 48%, 48%, 1)" stroke="none"></circle><circle r="0.8157894736842105" cx="114.28571428571429" cy="333.33333333333337" fill="hsla(231, 48%, 48%, 1)" stroke="none"></circle><circle r="0.8157894736842105" cx="171.42857142857144" cy="333.33333333333337" fill="hsla(231, 48%, 48%, 1)" stroke="none"></circle><circle r="0.8157894736842105" cx="228.57142857142858" cy="333.33333333333337" fill="hsla(231, 48%, 48%, 1)" stroke="none"></circle><circle r="0.8157894736842105" cx="285.7142857142857" cy="333.33333333333337" fill="hsla(231, 48%, 48%, 1)" stroke="none"></circle><circle r="0.8157894736842105" cx="342.8571428571429" cy="333.33333333333337" fill="hsla(231, 48%, 48%, 1)" stroke="none"></circle><circle r="0.8157894736842105" cx="400.00000000000006" cy="333.33333333333337" fill="hsla(231, 48%, 48%, 1)" stroke="none"></circle><circle r="0.8157894736842105" cx="457.1428571428572" cy="333.33333333333337" fill="hsla(231, 48%, 48%, 1)" stroke="none"></circle><circle r="0.8157894736842105" cx="514.2857142857143" cy="333.33333333333337" fill="hsla(231, 48%, 48%, 1)" stroke="none"></circle><circle r="0.8157894736842105" cx="571.4285714285714" cy="333.33333333333337" fill="hsla(231, 48%, 48%, 1)" stroke="none"></circle><circle r="0.8157894736842105" cx="628.5714285714286" cy="333.33333333333337" fill="hsla(231, 48%, 48%, 1)" stroke="none"></circle><circle r="0.8157894736842105" cx="685.7142857142857" cy="333.33333333333337" fill="hsla(231, 48%, 48%, 1)" stroke="none"></circle><circle r="0.8157894736842105" cx="742.8571428571428" cy="333.33333333333337" fill="hsla(231, 48%, 48%, 1)" stroke="none"></circle><circle r="0.8157894736842105" cx="799.9999999999999" cy="333.33333333333337" fill="hsla(231, 48%, 48%, 1)" stroke="none"></circle><circle r="0.8157894736842105" cx="0" cy="400.00000000000006" fill="hsla(231, 48%, 48%, 1)" stroke="none"></circle><circle r="0.8157894736842105" cx="57.142857142857146" cy="400.00000000000006" fill="hsla(231, 48%, 48%, 1)" stroke="none"></circle><circle r="0.8157894736842105" cx="114.28571428571429" cy="400.00000000000006" fill="hsla(231, 48%, 48%, 1)" stroke="none"></circle><circle r="0.8157894736842105" cx="171.42857142857144" cy="400.00000000000006" fill="hsla(231, 48%, 48%, 1)" stroke="none"></circle><circle r="0.8157894736842105" cx="228.57142857142858" cy="400.00000000000006" fill="hsla(231, 48%, 48%, 1)" stroke="none"></circle><circle r="0.8157894736842105" cx="285.7142857142857" cy="400.00000000000006" fill="hsla(231, 48%, 48%, 1)" stroke="none"></circle><circle r="0.8157894736842105" cx="342.8571428571429" cy="400.00000000000006" fill="hsla(231, 48%, 48%, 1)" stroke="none"></circle><circle r="0.8157894736842105" cx="400.00000000000006" cy="400.00000000000006" fill="hsla(231, 48%, 48%, 1)" stroke="none"></circle><circle r="0.8157894736842105" cx="457.1428571428572" cy="400.00000000000006" fill="hsla(231, 48%, 48%, 1)" stroke="none"></circle><circle r="0.8157894736842105" cx="514.2857142857143" cy="400.00000000000006" fill="hsla(231, 48%, 48%, 1)" stroke="none"></circle><circle r="0.8157894736842105" cx="571.4285714285714" cy="400.00000000000006" fill="hsla(231, 48%, 48%, 1)" stroke="none"></circle><circle r="0.8157894736842105" cx="628.5714285714286" cy="400.00000000000006" fill="hsla(231, 48%, 48%, 1)" stroke="none"></circle><circle r="0.8157894736842105" cx="685.7142857142857" cy="400.00000000000006" fill="hsla(231, 48%, 48%, 1)" stroke="none"></circle><circle r="0.8157894736842105" cx="742.8571428571428" cy="400.00000000000006" fill="hsla(231, 48%, 48%, 1)" stroke="none"></circle><circle r="0.8157894736842105" cx="799.9999999999999" cy="400.00000000000006" fill="hsla(231, 48%, 48%, 1)" stroke="none"></circle><circle r="0.8157894736842105" cx="0" cy="466.66666666666674" fill="hsla(231, 48%, 48%, 1)" stroke="none"></circle><circle r="0.8157894736842105" cx="57.142857142857146" cy="466.66666666666674" fill="hsla(231, 48%, 48%, 1)" stroke="none"></circle><circle r="0.8157894736842105" cx="114.28571428571429" cy="466.66666666666674" fill="hsla(231, 48%, 48%, 1)" stroke="none"></circle><circle r="0.8157894736842105" cx="171.42857142857144" cy="466.66666666666674" fill="hsla(231, 48%, 48%, 1)" stroke="none"></circle><circle r="0.8157894736842105" cx="228.57142857142858" cy="466.66666666666674" fill="hsla(231, 48%, 48%, 1)" stroke="none"></circle><circle r="0.8157894736842105" cx="285.7142857142857" cy="466.66666666666674" fill="hsla(231, 48%, 48%, 1)" stroke="none"></circle><circle r="0.8157894736842105" cx="342.8571428571429" cy="466.66666666666674" fill="hsla(231, 48%, 48%, 1)" stroke="none"></circle><circle r="0.8157894736842105" cx="400.00000000000006" cy="466.66666666666674" fill="hsla(231, 48%, 48%, 1)" stroke="none"></circle><circle r="0.8157894736842105" cx="457.1428571428572" cy="466.66666666666674" fill="hsla(231, 48%, 48%, 1)" stroke="none"></circle><circle r="0.8157894736842105" cx="514.2857142857143" cy="466.66666666666674" fill="hsla(231, 48%, 48%, 1)" stroke="none"></circle><circle r="0.8157894736842105" cx="571.4285714285714" cy="466.66666666666674" fill="hsla(231, 48%, 48%, 1)" stroke="none"></circle><circle r="0.8157894736842105" cx="628.5714285714286" cy="466.66666666666674" fill="hsla(231, 48%, 48%, 1)" stroke="none"></circle><circle r="0.8157894736842105" cx="685.7142857142857" cy="466.66666666666674" fill="hsla(231, 48%, 48%, 1)" stroke="none"></circle><circle r="0.8157894736842105" cx="742.8571428571428" cy="466.66666666666674" fill="hsla(231, 48%, 48%, 1)" stroke="none"></circle><circle r="0.8157894736842105" cx="799.9999999999999" cy="466.66666666666674" fill="hsla(231, 48%, 48%, 1)" stroke="none"></circle><circle r="0.8157894736842105" cx="0" cy="533.3333333333334" fill="hsla(231, 48%, 48%, 1)" stroke="none"></circle><circle r="0.8157894736842105" cx="57.142857142857146" cy="533.3333333333334" fill="hsla(231, 48%, 48%, 1)" stroke="none"></circle><circle r="0.8157894736842105" cx="114.28571428571429" cy="533.3333333333334" fill="hsla(231, 48%, 48%, 1)" stroke="none"></circle><circle r="0.8157894736842105" cx="171.42857142857144" cy="533.3333333333334" fill="hsla(231, 48%, 48%, 1)" stroke="none"></circle><circle r="0.8157894736842105" cx="228.57142857142858" cy="533.3333333333334" fill="hsla(231, 48%, 48%, 1)" stroke="none"></circle><circle r="0.8157894736842105" cx="285.7142857142857" cy="533.3333333333334" fill="hsla(231, 48%, 48%, 1)" stroke="none"></circle><circle r="0.8157894736842105" cx="342.8571428571429" cy="533.3333333333334" fill="hsla(231, 48%, 48%, 1)" stroke="none"></circle><circle r="0.8157894736842105" cx="400.00000000000006" cy="533.3333333333334" fill="hsla(231, 48%, 48%, 1)" stroke="none"></circle><circle r="0.8157894736842105" cx="457.1428571428572" cy="533.3333333333334" fill="hsla(231, 48%, 48%, 1)" stroke="none"></circle><circle r="0.8157894736842105" cx="514.2857142857143" cy="533.3333333333334" fill="hsla(231, 48%, 48%, 1)" stroke="none"></circle><circle r="0.8157894736842105" cx="571.4285714285714" cy="533.3333333333334" fill="hsla(231, 48%, 48%, 1)" stroke="none"></circle><circle r="0.8157894736842105" cx="628.5714285714286" cy="533.3333333333334" fill="hsla(231, 48%, 48%, 1)" stroke="none"></circle><circle r="0.8157894736842105" cx="685.7142857142857" cy="533.3333333333334" fill="hsla(231, 48%, 48%, 1)" stroke="none"></circle><circle r="0.8157894736842105" cx="742.8571428571428" cy="533.3333333333334" fill="hsla(231, 48%, 48%, 1)" stroke="none"></circle><circle r="0.8157894736842105" cx="799.9999999999999" cy="533.3333333333334" fill="hsla(231, 48%, 48%, 1)" stroke="none"></circle><circle r="0.8157894736842105" cx="0" cy="600" fill="hsla(231, 48%, 48%, 1)" stroke="none"></circle><circle r="0.8157894736842105" cx="57.142857142857146" cy="600" fill="hsla(231, 48%, 48%, 1)" stroke="none"></circle><circle r="0.8157894736842105" cx="114.28571428571429" cy="600" fill="hsla(231, 48%, 48%, 1)" stroke="none"></circle><circle r="0.8157894736842105" cx="171.42857142857144" cy="600" fill="hsla(231, 48%, 48%, 1)" stroke="none"></circle><circle r="0.8157894736842105" cx="228.57142857142858" cy="600" fill="hsla(231, 48%, 48%, 1)" stroke="none"></circle><circle r="0.8157894736842105" cx="285.7142857142857" cy="600" fill="hsla(231, 48%, 48%, 1)" stroke="none"></circle><circle r="0.8157894736842105" cx="342.8571428571429" cy="600" fill="hsla(231, 48%, 48%, 1)" stroke="none"></circle><circle r="0.8157894736842105" cx="400.00000000000006" cy="600" fill="hsla(231, 48%, 48%, 1)" stroke="none"></circle><circle r="0.8157894736842105" cx="457.1428571428572" cy="600" fill="hsla(231, 48%, 48%, 1)" stroke="none"></circle><circle r="0.8157894736842105" cx="514.2857142857143" cy="600" fill="hsla(231, 48%, 48%, 1)" stroke="none"></circle><circle r="0.8157894736842105" cx="571.4285714285714" cy="600" fill="hsla(231, 48%, 48%, 1)" stroke="none"></circle><circle r="0.8157894736842105" cx="628.5714285714286" cy="600" fill="hsla(231, 48%, 48%, 1)" stroke="none"></circle><circle r="0.8157894736842105" cx="685.7142857142857" cy="600" fill="hsla(231, 48%, 48%, 1)" stroke="none"></circle><circle r="0.8157894736842105" cx="742.8571428571428" cy="600" fill="hsla(231, 48%, 48%, 1)" stroke="none"></circle><circle r="0.8157894736842105" cx="799.9999999999999" cy="600" fill="hsla(231, 48%, 48%, 1)" stroke="none"></circle><circle r="0.8157894736842105" cx="0" cy="666.6666666666666" fill="hsla(231, 48%, 48%, 1)" stroke="none"></circle><circle r="0.8157894736842105" cx="57.142857142857146" cy="666.6666666666666" fill="hsla(231, 48%, 48%, 1)" stroke="none"></circle><circle r="0.8157894736842105" cx="114.28571428571429" cy="666.6666666666666" fill="hsla(231, 48%, 48%, 1)" stroke="none"></circle><circle r="0.8157894736842105" cx="171.42857142857144" cy="666.6666666666666" fill="hsla(231, 48%, 48%, 1)" stroke="none"></circle><circle r="0.8157894736842105" cx="228.57142857142858" cy="666.6666666666666" fill="hsla(231, 48%, 48%, 1)" stroke="none"></circle><circle r="0.8157894736842105" cx="285.7142857142857" cy="666.6666666666666" fill="hsla(231, 48%, 48%, 1)" stroke="none"></circle><circle r="0.8157894736842105" cx="342.8571428571429" cy="666.6666666666666" fill="hsla(231, 48%, 48%, 1)" stroke="none"></circle><circle r="0.8157894736842105" cx="400.00000000000006" cy="666.6666666666666" fill="hsla(231, 48%, 48%, 1)" stroke="none"></circle><circle r="0.8157894736842105" cx="457.1428571428572" cy="666.6666666666666" fill="hsla(231, 48%, 48%, 1)" stroke="none"></circle><circle r="0.8157894736842105" cx="514.2857142857143" cy="666.6666666666666" fill="hsla(231, 48%, 48%, 1)" stroke="none"></circle><circle r="0.8157894736842105" cx="571.4285714285714" cy="666.6666666666666" fill="hsla(231, 48%, 48%, 1)" stroke="none"></circle><circle r="0.8157894736842105" cx="628.5714285714286" cy="666.6666666666666" fill="hsla(231, 48%, 48%, 1)" stroke="none"></circle><circle r="0.8157894736842105" cx="685.7142857142857" cy="666.6666666666666" fill="hsla(231, 48%, 48%, 1)" stroke="none"></circle><circle r="0.8157894736842105" cx="742.8571428571428" cy="666.6666666666666" fill="hsla(231, 48%, 48%, 1)" stroke="none"></circle><circle r="0.8157894736842105" cx="799.9999999999999" cy="666.6666666666666" fill="hsla(231, 48%, 48%, 1)" stroke="none"></circle><circle r="0.8157894736842105" cx="0" cy="733.3333333333333" fill="hsla(231, 48%, 48%, 1)" stroke="none"></circle><circle r="0.8157894736842105" cx="57.142857142857146" cy="733.3333333333333" fill="hsla(231, 48%, 48%, 1)" stroke="none"></circle><circle r="0.8157894736842105" cx="114.28571428571429" cy="733.3333333333333" fill="hsla(231, 48%, 48%, 1)" stroke="none"></circle><circle r="0.8157894736842105" cx="171.42857142857144" cy="733.3333333333333" fill="hsla(231, 48%, 48%, 1)" stroke="none"></circle><circle r="0.8157894736842105" cx="228.57142857142858" cy="733.3333333333333" fill="hsla(231, 48%, 48%, 1)" stroke="none"></circle><circle r="0.8157894736842105" cx="285.7142857142857" cy="733.3333333333333" fill="hsla(231, 48%, 48%, 1)" stroke="none"></circle><circle r="0.8157894736842105" cx="342.8571428571429" cy="733.3333333333333" fill="hsla(231, 48%, 48%, 1)" stroke="none"></circle><circle r="0.8157894736842105" cx="400.00000000000006" cy="733.3333333333333" fill="hsla(231, 48%, 48%, 1)" stroke="none"></circle><circle r="0.8157894736842105" cx="457.1428571428572" cy="733.3333333333333" fill="hsla(231, 48%, 48%, 1)" stroke="none"></circle><circle r="0.8157894736842105" cx="514.2857142857143" cy="733.3333333333333" fill="hsla(231, 48%, 48%, 1)" stroke="none"></circle><circle r="0.8157894736842105" cx="571.4285714285714" cy="733.3333333333333" fill="hsla(231, 48%, 48%, 1)" stroke="none"></circle><circle r="0.8157894736842105" cx="628.5714285714286" cy="733.3333333333333" fill="hsla(231, 48%, 48%, 1)" stroke="none"></circle><circle r="0.8157894736842105" cx="685.7142857142857" cy="733.3333333333333" fill="hsla(231, 48%, 48%, 1)" stroke="none"></circle><circle r="0.8157894736842105" cx="742.8571428571428" cy="733.3333333333333" fill="hsla(231, 48%, 48%, 1)" stroke="none"></circle><circle r="0.8157894736842105" cx="799.9999999999999" cy="733.3333333333333" fill="hsla(231, 48%, 48%, 1)" stroke="none"></circle><circle r="0.8157894736842105" cx="0" cy="799.9999999999999" fill="hsla(231, 48%, 48%, 1)" stroke="none"></circle><circle r="0.8157894736842105" cx="57.142857142857146" cy="799.9999999999999" fill="hsla(231, 48%, 48%, 1)" stroke="none"></circle><circle r="0.8157894736842105" cx="114.28571428571429" cy="799.9999999999999" fill="hsla(231, 48%, 48%, 1)" stroke="none"></circle><circle r="0.8157894736842105" cx="171.42857142857144" cy="799.9999999999999" fill="hsla(231, 48%, 48%, 1)" stroke="none"></circle><circle r="0.8157894736842105" cx="228.57142857142858" cy="799.9999999999999" fill="hsla(231, 48%, 48%, 1)" stroke="none"></circle><circle r="0.8157894736842105" cx="285.7142857142857" cy="799.9999999999999" fill="hsla(231, 48%, 48%, 1)" stroke="none"></circle><circle r="0.8157894736842105" cx="342.8571428571429" cy="799.9999999999999" fill="hsla(231, 48%, 48%, 1)" stroke="none"></circle><circle r="0.8157894736842105" cx="400.00000000000006" cy="799.9999999999999" fill="hsla(231, 48%, 48%, 1)" stroke="none"></circle><circle r="0.8157894736842105" cx="457.1428571428572" cy="799.9999999999999" fill="hsla(231, 48%, 48%, 1)" stroke="none"></circle><circle r="0.8157894736842105" cx="514.2857142857143" cy="799.9999999999999" fill="hsla(231, 48%, 48%, 1)" stroke="none"></circle><circle r="0.8157894736842105" cx="571.4285714285714" cy="799.9999999999999" fill="hsla(231, 48%, 48%, 1)" stroke="none"></circle><circle r="0.8157894736842105" cx="628.5714285714286" cy="799.9999999999999" fill="hsla(231, 48%, 48%, 1)" stroke="none"></circle><circle r="0.8157894736842105" cx="685.7142857142857" cy="799.9999999999999" fill="hsla(231, 48%, 48%, 1)" stroke="none"></circle><circle r="0.8157894736842105" cx="742.8571428571428" cy="799.9999999999999" fill="hsla(231, 48%, 48%, 1)" stroke="none"></circle><circle r="0.8157894736842105" cx="799.9999999999999" cy="799.9999999999999" fill="hsla(231, 48%, 48%, 1)" stroke="none"></circle></g></svg>