<svg xmlns="http://www.w3.org/2000/svg" version="1.1" xmlns:xlink="http://www.w3.org/1999/xlink" xmlns:svgjs="http://svgjs.dev/svgjs" viewBox="0 0 800 800"><circle r="7" cx="471" cy="399" fill="hsl(225, 75%, 70%)" opacity="0.80"></circle><circle r="5" cx="538" cy="729" fill="hsl(209, 75%, 70%)" opacity="0.80"></circle><circle r="5.5" cx="503" cy="218" fill="hsl(217, 75%, 70%)" opacity="0.49"></circle><circle r="14.5" cx="201" cy="419" fill="hsl(288, 75%, 70%)" opacity="0.91"></circle><circle r="9.5" cx="16" cy="598" fill="hsl(266, 75%, 70%)" opacity="0.43"></circle><circle r="7.5" cx="661" cy="594" fill="hsl(202, 75%, 70%)" opacity="0.31"></circle><circle r="5.5" cx="750" cy="81" fill="hsl(253, 75%, 70%)" opacity="0.53"></circle><circle r="11" cx="83" cy="647" fill="hsl(259, 75%, 70%)" opacity="0.53"></circle><circle r="11" cx="73" cy="305" fill="hsl(259, 75%, 70%)" opacity="0.92"></circle><circle r="9" cx="312" cy="271" fill="hsl(274, 75%, 70%)" opacity="0.31"></circle><circle r="5.5" cx="441" cy="233" fill="hsl(229, 75%, 70%)" opacity="0.93"></circle><circle r="8" cx="250" cy="412" fill="hsl(288, 75%, 70%)" opacity="0.94"></circle><circle r="8" cx="625" cy="462" fill="hsl(199, 75%, 70%)" opacity="0.62"></circle><circle r="10" cx="128" cy="580" fill="hsl(268, 75%, 70%)" opacity="0.65"></circle><circle r="9" cx="598" cy="111" fill="hsl(227, 75%, 70%)" opacity="0.82"></circle><circle r="14.5" cx="117" cy="474" fill="hsl(265, 75%, 70%)" opacity="0.62"></circle><circle r="10" cx="302" cy="431" fill="hsl(274, 75%, 70%)" opacity="0.12"></circle><circle r="17" cx="479" cy="29" fill="hsl(305, 75%, 70%)" opacity="0.43"></circle><circle r="9" cx="179" cy="283" fill="hsl(283, 75%, 70%)" opacity="0.66"></circle><circle r="5" cx="791" cy="84" fill="hsl(278, 75%, 70%)" opacity="0.96"></circle><circle r="7" cx="787" cy="245" fill="hsl(275, 75%, 70%)" opacity="0.93"></circle><circle r="10" cx="735" cy="665" fill="hsl(237, 75%, 70%)" opacity="0.77"></circle><circle r="4" cx="701" cy="732" fill="hsl(221, 75%, 70%)" opacity="0.61"></circle><circle r="9" cx="768" cy="494" fill="hsl(265, 75%, 70%)" opacity="0.36"></circle><circle r="6" cx="717" cy="708" fill="hsl(229, 75%, 70%)" opacity="0.28"></circle><circle r="9.5" cx="568" cy="80" fill="hsl(246, 75%, 70%)" opacity="0.62"></circle><circle r="9" cx="448" cy="661" fill="hsl(229, 75%, 70%)" opacity="0.82"></circle><circle r="8.5" cx="710" cy="264" fill="hsl(221, 75%, 70%)" opacity="0.22"></circle><circle r="13" cx="39" cy="30" fill="hsl(235, 75%, 70%)" opacity="0.83"></circle><circle r="10.5" cx="669" cy="98" fill="hsl(223, 75%, 70%)" opacity="0.13"></circle><circle r="11.5" cx="261" cy="773" fill="hsl(288, 75%, 70%)" opacity="0.18"></circle><circle r="9" cx="159" cy="384" fill="hsl(276, 75%, 70%)" opacity="0.32"></circle><circle r="6.5" cx="508" cy="293" fill="hsl(217, 75%, 70%)" opacity="0.98"></circle><circle r="7.5" cx="339" cy="258" fill="hsl(258, 75%, 70%)" opacity="0.35"></circle><circle r="7.5" cx="265" cy="431" fill="hsl(286, 75%, 70%)" opacity="0.53"></circle><circle r="4" cx="567" cy="667" fill="hsl(204, 75%, 70%)" opacity="0.36"></circle><circle r="14" cx="769" cy="27" fill="hsl(269, 75%, 70%)" opacity="0.98"></circle><circle r="8.5" cx="41" cy="473" fill="hsl(261, 75%, 70%)" opacity="0.63"></circle><circle r="7.5" cx="252" cy="714" fill="hsl(288, 75%, 70%)" opacity="0.62"></circle><circle r="11.5" cx="200" cy="628" fill="hsl(286, 75%, 70%)" opacity="0.78"></circle><circle r="5" cx="402" cy="289" fill="hsl(237, 75%, 70%)" opacity="0.42"></circle><circle r="9.5" cx="605" cy="587" fill="hsl(199, 75%, 70%)" opacity="0.80"></circle><circle r="10.5" cx="249" cy="566" fill="hsl(289, 75%, 70%)" opacity="0.53"></circle><circle r="5.5" cx="13" cy="352" fill="hsl(266, 75%, 70%)" opacity="0.61"></circle><circle r="6" cx="409" cy="222" fill="hsl(237, 75%, 70%)" opacity="0.11"></circle><circle r="7" cx="212" cy="18" fill="hsl(238, 75%, 70%)" opacity="0.70"></circle><circle r="11.5" cx="278" cy="605" fill="hsl(282, 75%, 70%)" opacity="0.23"></circle><circle r="5.5" cx="473" cy="636" fill="hsl(225, 75%, 70%)" opacity="0.23"></circle><circle r="6.5" cx="419" cy="413" fill="hsl(234, 75%, 70%)" opacity="0.45"></circle><circle r="9" cx="213" cy="268" fill="hsl(289, 75%, 70%)" opacity="0.86"></circle><circle r="9" cx="279" cy="687" fill="hsl(282, 75%, 70%)" opacity="0.67"></circle><circle r="8" cx="495" cy="437" fill="hsl(220, 75%, 70%)" opacity="0.91"></circle><circle r="8.5" cx="59" cy="167" fill="hsl(251, 75%, 70%)" opacity="0.25"></circle><circle r="10.5" cx="778" cy="714" fill="hsl(275, 75%, 70%)" opacity="0.92"></circle><circle r="7" cx="377" cy="429" fill="hsl(244, 75%, 70%)" opacity="0.28"></circle><circle r="8" cx="596" cy="321" fill="hsl(200, 75%, 70%)" opacity="0.29"></circle><circle r="9.5" cx="718" cy="566" fill="hsl(229, 75%, 70%)" opacity="0.28"></circle><circle r="10.5" cx="337" cy="488" fill="hsl(264, 75%, 70%)" opacity="0.94"></circle><circle r="10.5" cx="60" cy="704" fill="hsl(260, 75%, 70%)" opacity="0.98"></circle><circle r="8.5" cx="605" cy="513" fill="hsl(199, 75%, 70%)" opacity="0.70"></circle><circle r="7" cx="132" cy="110" fill="hsl(222, 75%, 70%)" opacity="0.61"></circle><circle r="7" cx="26" cy="160" fill="hsl(255, 75%, 70%)" opacity="0.80"></circle><circle r="12" cx="360" cy="386" fill="hsl(253, 75%, 70%)" opacity="0.29"></circle><circle r="9.5" cx="777" cy="570" fill="hsl(275, 75%, 70%)" opacity="0.14"></circle><circle r="9" cx="75" cy="203" fill="hsl(259, 75%, 70%)" opacity="0.14"></circle><circle r="11.5" cx="90" cy="420" fill="hsl(260, 75%, 70%)" opacity="0.93"></circle><circle r="7.5" cx="452" cy="494" fill="hsl(227, 75%, 70%)" opacity="0.67"></circle><circle r="7.5" cx="112" cy="192" fill="hsl(262, 75%, 70%)" opacity="0.24"></circle><circle r="8.5" cx="707" cy="523" fill="hsl(221, 75%, 70%)" opacity="0.32"></circle><circle r="5" cx="443" cy="464" fill="hsl(229, 75%, 70%)" opacity="0.47"></circle><circle r="10" cx="303" cy="350" fill="hsl(274, 75%, 70%)" opacity="0.86"></circle><circle r="5" cx="275" cy="452" fill="hsl(286, 75%, 70%)" opacity="0.19"></circle><circle r="5.5" cx="677" cy="745" fill="hsl(209, 75%, 70%)" opacity="0.49"></circle><circle r="9.5" cx="111" cy="679" fill="hsl(262, 75%, 70%)" opacity="0.48"></circle><circle r="13" cx="638" cy="43" fill="hsl(233, 75%, 70%)" opacity="0.72"></circle><circle r="6" cx="649" cy="524" fill="hsl(200, 75%, 70%)" opacity="0.30"></circle><circle r="9.5" cx="360" cy="780" fill="hsl(253, 75%, 70%)" opacity="0.34"></circle><circle r="5" cx="448" cy="406" fill="hsl(229, 75%, 70%)" opacity="0.80"></circle><circle r="7" cx="648" cy="722" fill="hsl(200, 75%, 70%)" opacity="0.47"></circle><circle r="10" cx="744" cy="606" fill="hsl(246, 75%, 70%)" opacity="0.67"></circle><circle r="7.5" cx="80" cy="382" fill="hsl(259, 75%, 70%)" opacity="0.49"></circle><circle r="13" cx="288" cy="204" fill="hsl(278, 75%, 70%)" opacity="0.63"></circle><circle r="6.5" cx="152" cy="29" fill="hsl(207, 75%, 70%)" opacity="0.46"></circle><circle r="9" cx="51" cy="355" fill="hsl(260, 75%, 70%)" opacity="0.62"></circle><circle r="9.5" cx="700" cy="622" fill="hsl(215, 75%, 70%)" opacity="0.82"></circle><circle r="6.5" cx="483" cy="512" fill="hsl(222, 75%, 70%)" opacity="0.44"></circle><circle r="11" cx="212" cy="547" fill="hsl(288, 75%, 70%)" opacity="0.58"></circle><circle r="14.5" cx="354" cy="46" fill="hsl(335, 75%, 70%)" opacity="0.80"></circle><circle r="8" cx="539" cy="16" fill="hsl(267, 75%, 70%)" opacity="0.83"></circle><circle r="6.5" cx="622" cy="696" fill="hsl(199, 75%, 70%)" opacity="0.38"></circle><circle r="14" cx="147" cy="536" fill="hsl(272, 75%, 70%)" opacity="0.85"></circle><circle r="9" cx="29" cy="204" fill="hsl(263, 75%, 70%)" opacity="0.75"></circle><circle r="8.5" cx="114" cy="226" fill="hsl(265, 75%, 70%)" opacity="0.61"></circle><circle r="13.5" cx="427" cy="68" fill="hsl(315, 75%, 70%)" opacity="0.17"></circle><circle r="10" cx="297" cy="641" fill="hsl(278, 75%, 70%)" opacity="0.60"></circle><circle r="10" cx="118" cy="299" fill="hsl(265, 75%, 70%)" opacity="0.60"></circle><circle r="8.5" cx="182" cy="190" fill="hsl(283, 75%, 70%)" opacity="0.96"></circle><circle r="7" cx="773" cy="429" fill="hsl(265, 75%, 70%)" opacity="0.21"></circle><circle r="6" cx="694" cy="388" fill="hsl(215, 75%, 70%)" opacity="0.60"></circle><circle r="12" cx="21" cy="536" fill="hsl(266, 75%, 70%)" opacity="0.23"></circle><circle r="9.5" cx="444" cy="349" fill="hsl(229, 75%, 70%)" opacity="0.54"></circle><circle r="10" cx="147" cy="643" fill="hsl(272, 75%, 70%)" opacity="0.51"></circle><circle r="9" cx="424" cy="187" fill="hsl(241, 75%, 70%)" opacity="0.61"></circle><circle r="8" cx="785" cy="608" fill="hsl(275, 75%, 70%)" opacity="0.67"></circle><circle r="8" cx="516" cy="490" fill="hsl(214, 75%, 70%)" opacity="0.41"></circle><circle r="7.5" cx="525" cy="195" fill="hsl(212, 75%, 70%)" opacity="0.59"></circle><circle r="11" cx="432" cy="709" fill="hsl(232, 75%, 70%)" opacity="0.26"></circle><circle r="6.5" cx="139" cy="183" fill="hsl(264, 75%, 70%)" opacity="0.78"></circle><circle r="14" cx="769" cy="773" fill="hsl(265, 75%, 70%)" opacity="0.67"></circle><circle r="10.5" cx="467" cy="762" fill="hsl(225, 75%, 70%)" opacity="0.51"></circle><circle r="8.5" cx="222" cy="785" fill="hsl(289, 75%, 70%)" opacity="0.36"></circle><circle r="7" cx="669" cy="248" fill="hsl(205, 75%, 70%)" opacity="0.56"></circle><circle r="5.5" cx="758" cy="107" fill="hsl(258, 75%, 70%)" opacity="0.43"></circle><circle r="11.5" cx="377" cy="16" fill="hsl(345, 75%, 70%)" opacity="0.60"></circle><circle r="11.5" cx="467" cy="93" fill="hsl(290, 75%, 70%)" opacity="0.90"></circle><circle r="8" cx="236" cy="692" fill="hsl(290, 75%, 70%)" opacity="0.82"></circle><circle r="9" cx="783" cy="148" fill="hsl(273, 75%, 70%)" opacity="0.87"></circle><circle r="13" cx="776" cy="310" fill="hsl(275, 75%, 70%)" opacity="0.65"></circle><circle r="7.5" cx="560" cy="347" fill="hsl(206, 75%, 70%)" opacity="0.37"></circle><circle r="9.5" cx="771" cy="641" fill="hsl(265, 75%, 70%)" opacity="0.12"></circle><circle r="6.5" cx="10" cy="292" fill="hsl(269, 75%, 70%)" opacity="0.36"></circle><circle r="7.5" cx="686" cy="349" fill="hsl(209, 75%, 70%)" opacity="0.77"></circle><circle r="3.5" cx="525" cy="412" fill="hsl(212, 75%, 70%)" opacity="0.63"></circle><circle r="10" cx="41" cy="780" fill="hsl(261, 75%, 70%)" opacity="0.83"></circle><circle r="8.5" cx="160" cy="131" fill="hsl(239, 75%, 70%)" opacity="0.62"></circle><circle r="6.5" cx="513" cy="631" fill="hsl(214, 75%, 70%)" opacity="0.87"></circle><circle r="5.5" cx="493" cy="671" fill="hsl(220, 75%, 70%)" opacity="0.22"></circle><circle r="9.5" cx="561" cy="163" fill="hsl(215, 75%, 70%)" opacity="0.70"></circle><circle r="7" cx="25" cy="426" fill="hsl(263, 75%, 70%)" opacity="0.87"></circle><circle r="7" cx="409" cy="253" fill="hsl(237, 75%, 70%)" opacity="0.62"></circle><circle r="6.5" cx="486" cy="608" fill="hsl(222, 75%, 70%)" opacity="0.17"></circle><circle r="10" cx="650" cy="649" fill="hsl(202, 75%, 70%)" opacity="0.78"></circle><circle r="8.5" cx="565" cy="224" fill="hsl(204, 75%, 70%)" opacity="0.80"></circle><circle r="10.5" cx="294" cy="305" fill="hsl(278, 75%, 70%)" opacity="0.77"></circle><circle r="7" cx="205" cy="302" fill="hsl(288, 75%, 70%)" opacity="0.46"></circle><circle r="6" cx="22" cy="132" fill="hsl(257, 75%, 70%)" opacity="0.51"></circle><circle r="7.5" cx="739" cy="177" fill="hsl(247, 75%, 70%)" opacity="0.67"></circle><circle r="11.5" cx="249" cy="291" fill="hsl(289, 75%, 70%)" opacity="0.50"></circle><circle r="10.5" cx="206" cy="233" fill="hsl(288, 75%, 70%)" opacity="0.44"></circle><circle r="6.5" cx="788" cy="464" fill="hsl(284, 75%, 70%)" opacity="0.25"></circle><circle r="10" cx="120" cy="716" fill="hsl(265, 75%, 70%)" opacity="0.25"></circle><circle r="11.5" cx="373" cy="338" fill="hsl(249, 75%, 70%)" opacity="0.35"></circle><circle r="6" cx="10" cy="772" fill="hsl(269, 75%, 70%)" opacity="0.93"></circle><circle r="7" cx="640" cy="181" fill="hsl(201, 75%, 70%)" opacity="0.95"></circle><circle r="13" cx="147" cy="426" fill="hsl(272, 75%, 70%)" opacity="0.62"></circle><circle r="11.5" cx="320" cy="529" fill="hsl(269, 75%, 70%)" opacity="0.94"></circle><circle r="7.5" cx="690" cy="17" fill="hsl(243, 75%, 70%)" opacity="0.81"></circle><circle r="10.5" cx="239" cy="379" fill="hsl(289, 75%, 70%)" opacity="0.85"></circle><circle r="4.5" cx="440" cy="440" fill="hsl(229, 75%, 70%)" opacity="0.12"></circle><circle r="7.5" cx="26" cy="328" fill="hsl(263, 75%, 70%)" opacity="0.36"></circle><circle r="9" cx="278" cy="22" fill="hsl(309, 75%, 70%)" opacity="0.13"></circle><circle r="12" cx="170" cy="473" fill="hsl(279, 75%, 70%)" opacity="0.22"></circle><circle r="5.5" cx="146" cy="359" fill="hsl(272, 75%, 70%)" opacity="0.34"></circle><circle r="9" cx="349" cy="154" fill="hsl(271, 75%, 70%)" opacity="0.36"></circle><circle r="11" cx="408" cy="110" fill="hsl(295, 75%, 70%)" opacity="0.46"></circle><circle r="6.5" cx="463" cy="273" fill="hsl(225, 75%, 70%)" opacity="0.61"></circle><circle r="8" cx="598" cy="656" fill="hsl(200, 75%, 70%)" opacity="0.22"></circle><circle r="10.5" cx="284" cy="547" fill="hsl(282, 75%, 70%)" opacity="0.12"></circle><circle r="10.5" cx="54" cy="562" fill="hsl(260, 75%, 70%)" opacity="0.69"></circle><circle r="8.5" cx="104" cy="263" fill="hsl(262, 75%, 70%)" opacity="0.93"></circle><circle r="5.5" cx="423" cy="787" fill="hsl(234, 75%, 70%)" opacity="0.82"></circle><circle r="6" cx="97" cy="163" fill="hsl(248, 75%, 70%)" opacity="0.84"></circle><circle r="6.5" cx="90" cy="118" fill="hsl(228, 75%, 70%)" opacity="0.23"></circle><circle r="11" cx="338" cy="735" fill="hsl(258, 75%, 70%)" opacity="0.11"></circle><circle r="7.5" cx="408" cy="756" fill="hsl(237, 75%, 70%)" opacity="0.99"></circle><circle r="7" cx="608" cy="420" fill="hsl(199, 75%, 70%)" opacity="0.89"></circle><circle r="9.5" cx="212" cy="176" fill="hsl(281, 75%, 70%)" opacity="0.22"></circle><circle r="10" cx="743" cy="341" fill="hsl(246, 75%, 70%)" opacity="0.52"></circle><circle r="6" cx="540" cy="440" fill="hsl(209, 75%, 70%)" opacity="0.12"></circle><circle r="5.5" cx="380" cy="276" fill="hsl(244, 75%, 70%)" opacity="0.49"></circle><circle r="9.5" cx="95" cy="348" fill="hsl(260, 75%, 70%)" opacity="0.25"></circle><circle r="10.5" cx="84" cy="742" fill="hsl(259, 75%, 70%)" opacity="0.76"></circle><circle r="10.5" cx="320" cy="173" fill="hsl(272, 75%, 70%)" opacity="0.13"></circle><circle r="7" cx="518" cy="346" fill="hsl(214, 75%, 70%)" opacity="0.20"></circle><circle r="4" cx="551" cy="688" fill="hsl(206, 75%, 70%)" opacity="0.87"></circle><circle r="5.5" cx="564" cy="396" fill="hsl(204, 75%, 70%)" opacity="0.24"></circle><circle r="10.5" cx="534" cy="123" fill="hsl(249, 75%, 70%)" opacity="0.73"></circle><circle r="10" cx="454" cy="585" fill="hsl(227, 75%, 70%)" opacity="0.18"></circle><circle r="15.5" cx="349" cy="599" fill="hsl(258, 75%, 70%)" opacity="0.24"></circle><circle r="10" cx="768" cy="533" fill="hsl(265, 75%, 70%)" opacity="0.45"></circle><circle r="6" cx="537" cy="656" fill="hsl(212, 75%, 70%)" opacity="0.38"></circle><circle r="5.5" cx="491" cy="247" fill="hsl(220, 75%, 70%)" opacity="0.28"></circle><circle r="4" cx="517" cy="703" fill="hsl(214, 75%, 70%)" opacity="0.78"></circle><circle r="10" cx="158" cy="318" fill="hsl(276, 75%, 70%)" opacity="0.48"></circle><circle r="11" cx="186" cy="736" fill="hsl(283, 75%, 70%)" opacity="0.34"></circle><circle r="7.5" cx="624" cy="267" fill="hsl(199, 75%, 70%)" opacity="0.85"></circle><circle r="8.5" cx="246" cy="17" fill="hsl(274, 75%, 70%)" opacity="0.76"></circle><circle r="4.5" cx="527" cy="375" fill="hsl(212, 75%, 70%)" opacity="0.97"></circle><circle r="8" cx="687" cy="685" fill="hsl(209, 75%, 70%)" opacity="0.64"></circle><circle r="13.5" cx="314" cy="24" fill="hsl(334, 75%, 70%)" opacity="0.53"></circle><circle r="5.5" cx="746" cy="128" fill="hsl(249, 75%, 70%)" opacity="0.15"></circle><circle r="7.5" cx="29" cy="254" fill="hsl(263, 75%, 70%)" opacity="0.26"></circle><circle r="6.5" cx="737" cy="60" fill="hsl(250, 75%, 70%)" opacity="0.13"></circle><circle r="9" cx="104" cy="70" fill="hsl(211, 75%, 70%)" opacity="0.48"></circle><circle r="5.5" cx="624" cy="369" fill="hsl(199, 75%, 70%)" opacity="0.79"></circle><circle r="6.5" cx="730" cy="437" fill="hsl(237, 75%, 70%)" opacity="0.69"></circle><circle r="10.5" cx="435" cy="138" fill="hsl(264, 75%, 70%)" opacity="0.49"></circle><circle r="9" cx="380" cy="729" fill="hsl(244, 75%, 70%)" opacity="0.92"></circle><circle r="11" cx="159" cy="706" fill="hsl(276, 75%, 70%)" opacity="0.49"></circle><circle r="7" cx="699" cy="145" fill="hsl(220, 75%, 70%)" opacity="0.91"></circle><circle r="7.5" cx="486" cy="547" fill="hsl(222, 75%, 70%)" opacity="0.87"></circle><circle r="9" cx="121" cy="618" fill="hsl(265, 75%, 70%)" opacity="0.50"></circle><circle r="7.5" cx="785" cy="675" fill="hsl(275, 75%, 70%)" opacity="0.14"></circle><circle r="9.5" cx="27" cy="738" fill="hsl(263, 75%, 70%)" opacity="0.80"></circle><circle r="7.5" cx="527" cy="259" fill="hsl(212, 75%, 70%)" opacity="0.65"></circle><circle r="6.5" cx="705" cy="421" fill="hsl(221, 75%, 70%)" opacity="0.70"></circle><circle r="10" cx="384" cy="143" fill="hsl(271, 75%, 70%)" opacity="0.78"></circle><circle r="8.5" cx="645" cy="316" fill="hsl(200, 75%, 70%)" opacity="0.13"></circle><circle r="5.5" cx="183" cy="22" fill="hsl(219, 75%, 70%)" opacity="0.65"></circle><circle r="8.5" cx="498" cy="106" fill="hsl(273, 75%, 70%)" opacity="0.81"></circle><circle r="6.5" cx="14" cy="93" fill="hsl(255, 75%, 70%)" opacity="0.23"></circle><circle r="7" cx="484" cy="318" fill="hsl(222, 75%, 70%)" opacity="0.76"></circle><circle r="12" cx="406" cy="625" fill="hsl(237, 75%, 70%)" opacity="0.84"></circle><circle r="10" cx="715" cy="214" fill="hsl(229, 75%, 70%)" opacity="0.78"></circle><circle r="10.5" cx="780" cy="196" fill="hsl(275, 75%, 70%)" opacity="0.54"></circle><circle r="11" cx="94" cy="532" fill="hsl(260, 75%, 70%)" opacity="0.66"></circle><circle r="8.5" cx="723" cy="478" fill="hsl(229, 75%, 70%)" opacity="0.42"></circle><circle r="7" cx="518" cy="770" fill="hsl(214, 75%, 70%)" opacity="0.63"></circle><circle r="8" cx="222" cy="51" fill="hsl(246, 75%, 70%)" opacity="0.97"></circle><circle r="13" cx="249" cy="85" fill="hsl(264, 75%, 70%)" opacity="0.76"></circle><circle r="8" cx="109" cy="22" fill="hsl(204, 75%, 70%)" opacity="0.53"></circle><circle r="12.5" cx="385" cy="490" fill="hsl(244, 75%, 70%)" opacity="0.97"></circle><circle r="5" cx="467" cy="237" fill="hsl(225, 75%, 70%)" opacity="0.45"></circle><circle r="14" cx="243" cy="144" fill="hsl(272, 75%, 70%)" opacity="0.62"></circle><circle r="10.5" cx="177" cy="781" fill="hsl(283, 75%, 70%)" opacity="0.46"></circle><circle r="8" cx="394" cy="686" fill="hsl(241, 75%, 70%)" opacity="0.26"></circle><circle r="8.5" cx="128" cy="337" fill="hsl(268, 75%, 70%)" opacity="0.94"></circle><circle r="15.5" cx="299" cy="118" fill="hsl(284, 75%, 70%)" opacity="0.12"></circle><circle r="6" cx="15" cy="379" fill="hsl(266, 75%, 70%)" opacity="0.16"></circle><circle r="8.5" cx="579" cy="272" fill="hsl(202, 75%, 70%)" opacity="0.55"></circle><circle r="7.5" cx="418" cy="313" fill="hsl(234, 75%, 70%)" opacity="0.43"></circle><circle r="7.5" cx="485" cy="365" fill="hsl(222, 75%, 70%)" opacity="0.98"></circle><circle r="10" cx="333" cy="651" fill="hsl(264, 75%, 70%)" opacity="0.30"></circle><circle r="9" cx="676" cy="485" fill="hsl(209, 75%, 70%)" opacity="0.17"></circle><circle r="8.5" cx="41" cy="671" fill="hsl(261, 75%, 70%)" opacity="0.56"></circle><circle r="9.5" cx="206" cy="704" fill="hsl(288, 75%, 70%)" opacity="0.22"></circle><circle r="9.5" cx="641" cy="773" fill="hsl(200, 75%, 70%)" opacity="0.10"></circle><circle r="11" cx="246" cy="474" fill="hsl(289, 75%, 70%)" opacity="0.69"></circle><circle r="9.5" cx="171" cy="73" fill="hsl(217, 75%, 70%)" opacity="0.22"></circle><circle r="11" cx="346" cy="112" fill="hsl(297, 75%, 70%)" opacity="0.91"></circle><circle r="4" cx="776" cy="96" fill="hsl(272, 75%, 70%)" opacity="0.33"></circle><circle r="6.5" cx="369" cy="251" fill="hsl(249, 75%, 70%)" opacity="0.92"></circle><circle r="12.5" cx="241" cy="204" fill="hsl(289, 75%, 70%)" opacity="0.11"></circle><circle r="9" cx="707" cy="777" fill="hsl(221, 75%, 70%)" opacity="0.89"></circle><circle r="10" cx="263" cy="335" fill="hsl(286, 75%, 70%)" opacity="0.23"></circle><circle r="12.5" cx="266" cy="252" fill="hsl(286, 75%, 70%)" opacity="0.38"></circle><circle r="10" cx="383" cy="195" fill="hsl(244, 75%, 70%)" opacity="0.60"></circle><circle r="11" cx="193" cy="512" fill="hsl(286, 75%, 70%)" opacity="0.63"></circle><circle r="11.5" cx="587" cy="31" fill="hsl(248, 75%, 70%)" opacity="0.57"></circle><circle r="8.5" cx="522" cy="587" fill="hsl(214, 75%, 70%)" opacity="0.61"></circle><circle r="8.5" cx="14" cy="649" fill="hsl(266, 75%, 70%)" opacity="0.23"></circle><circle r="14" cx="177" cy="585" fill="hsl(283, 75%, 70%)" opacity="0.29"></circle><circle r="7.5" cx="220" cy="485" fill="hsl(289, 75%, 70%)" opacity="0.22"></circle><circle r="7" cx="163" cy="166" fill="hsl(264, 75%, 70%)" opacity="0.53"></circle><circle r="8" cx="55" cy="271" fill="hsl(260, 75%, 70%)" opacity="0.58"></circle><circle r="9.5" cx="151" cy="271" fill="hsl(276, 75%, 70%)" opacity="0.43"></circle><circle r="8.5" cx="502" cy="153" fill="hsl(237, 75%, 70%)" opacity="0.80"></circle><circle r="12.5" cx="304" cy="68" fill="hsl(307, 75%, 70%)" opacity="0.41"></circle><circle r="7" cx="655" cy="383" fill="hsl(202, 75%, 70%)" opacity="0.18"></circle><circle r="10.5" cx="344" cy="219" fill="hsl(258, 75%, 70%)" opacity="0.42"></circle><circle r="9" cx="564" cy="477" fill="hsl(204, 75%, 70%)" opacity="0.92"></circle><circle r="3" cx="511" cy="686" fill="hsl(217, 75%, 70%)" opacity="0.77"></circle><circle r="7.5" cx="669" cy="436" fill="hsl(205, 75%, 70%)" opacity="0.90"></circle><circle r="7.5" cx="365" cy="670" fill="hsl(249, 75%, 70%)" opacity="0.79"></circle><circle r="5.5" cx="591" cy="375" fill="hsl(200, 75%, 70%)" opacity="0.95"></circle><circle r="9" cx="232" cy="342" fill="hsl(290, 75%, 70%)" opacity="0.39"></circle><circle r="11.5" cx="224" cy="748" fill="hsl(289, 75%, 70%)" opacity="0.67"></circle><circle r="6" cx="716" cy="117" fill="hsl(236, 75%, 70%)" opacity="0.34"></circle><circle r="7.5" cx="467" cy="158" fill="hsl(248, 75%, 70%)" opacity="0.50"></circle><circle r="7" cx="492" cy="724" fill="hsl(220, 75%, 70%)" opacity="0.34"></circle><circle r="9.5" cx="199" cy="116" fill="hsl(245, 75%, 70%)" opacity="0.92"></circle><circle r="3.5" cx="539" cy="399" fill="hsl(209, 75%, 70%)" opacity="0.70"></circle><circle r="10.5" cx="554" cy="545" fill="hsl(206, 75%, 70%)" opacity="0.18"></circle><circle r="8" cx="697" cy="305" fill="hsl(215, 75%, 70%)" opacity="0.91"></circle><circle r="7" cx="711" cy="87" fill="hsl(236, 75%, 70%)" opacity="0.55"></circle><circle r="15" cx="398" cy="550" fill="hsl(241, 75%, 70%)" opacity="0.62"></circle><circle r="9.5" cx="756" cy="268" fill="hsl(256, 75%, 70%)" opacity="0.62"></circle><circle r="9" cx="753" cy="226" fill="hsl(256, 75%, 70%)" opacity="0.56"></circle><circle r="11" cx="311" cy="390" fill="hsl(274, 75%, 70%)" opacity="0.22"></circle><circle r="9.5" cx="216" cy="662" fill="hsl(289, 75%, 70%)" opacity="0.42"></circle><circle r="7" cx="467" cy="195" fill="hsl(225, 75%, 70%)" opacity="0.70"></circle><circle r="9.5" cx="735" cy="385" fill="hsl(237, 75%, 70%)" opacity="0.28"></circle><circle r="9" cx="87" cy="586" fill="hsl(259, 75%, 70%)" opacity="0.80"></circle><circle r="7.5" cx="38" cy="399" fill="hsl(261, 75%, 70%)" opacity="0.16"></circle><circle r="5" cx="554" cy="772" fill="hsl(206, 75%, 70%)" opacity="0.73"></circle><circle r="5" cx="504" cy="398" fill="hsl(217, 75%, 70%)" opacity="0.33"></circle><circle r="7" cx="600" cy="190" fill="hsl(199, 75%, 70%)" opacity="0.56"></circle><circle r="6.5" cx="213" cy="325" fill="hsl(289, 75%, 70%)" opacity="0.17"></circle><circle r="7" cx="632" cy="225" fill="hsl(199, 75%, 70%)" opacity="0.67"></circle><circle r="8.5" cx="73" cy="240" fill="hsl(259, 75%, 70%)" opacity="0.44"></circle><circle r="8" cx="707" cy="46" fill="hsl(243, 75%, 70%)" opacity="0.53"></circle><circle r="8.5" cx="745" cy="726" fill="hsl(246, 75%, 70%)" opacity="0.47"></circle><circle r="9.5" cx="342" cy="440" fill="hsl(258, 75%, 70%)" opacity="0.68"></circle><circle r="6.5" cx="287" cy="470" fill="hsl(282, 75%, 70%)" opacity="0.31"></circle><circle r="7" cx="404" cy="445" fill="hsl(237, 75%, 70%)" opacity="0.49"></circle><circle r="7.5" cx="12" cy="232" fill="hsl(269, 75%, 70%)" opacity="0.73"></circle><circle r="9.5" cx="191" cy="349" fill="hsl(286, 75%, 70%)" opacity="0.83"></circle><circle r="8.5" cx="681" cy="180" fill="hsl(210, 75%, 70%)" opacity="0.97"></circle><circle r="10" cx="524" cy="52" fill="hsl(280, 75%, 70%)" opacity="0.31"></circle><circle r="8.5" cx="91" cy="783" fill="hsl(260, 75%, 70%)" opacity="0.47"></circle><circle r="6.5" cx="591" cy="724" fill="hsl(200, 75%, 70%)" opacity="0.65"></circle><circle r="7" cx="295" cy="495" fill="hsl(278, 75%, 70%)" opacity="0.81"></circle><circle r="11" cx="51" cy="87" fill="hsl(232, 75%, 70%)" opacity="0.38"></circle><circle r="10.5" cx="781" cy="387" fill="hsl(275, 75%, 70%)" opacity="0.14"></circle><circle r="4.5" cx="745" cy="151" fill="hsl(247, 75%, 70%)" opacity="0.31"></circle><circle r="4.5" cx="559" cy="715" fill="hsl(206, 75%, 70%)" opacity="0.94"></circle><circle r="11" cx="321" cy="694" fill="hsl(269, 75%, 70%)" opacity="0.52"></circle><circle r="7.5" cx="449" cy="304" fill="hsl(229, 75%, 70%)" opacity="0.57"></circle><circle r="3.5" cx="98" cy="142" fill="hsl(237, 75%, 70%)" opacity="0.43"></circle><circle r="5.5" cx="657" cy="556" fill="hsl(202, 75%, 70%)" opacity="0.55"></circle><circle r="11.5" cx="139" cy="764" fill="hsl(272, 75%, 70%)" opacity="0.22"></circle><circle r="6.5" cx="518" cy="82" fill="hsl(273, 75%, 70%)" opacity="0.77"></circle><circle r="13.5" cx="307" cy="775" fill="hsl(274, 75%, 70%)" opacity="0.36"></circle><circle r="8" cx="562" cy="614" fill="hsl(206, 75%, 70%)" opacity="0.56"></circle><circle r="11" cx="70" cy="495" fill="hsl(259, 75%, 70%)" opacity="0.87"></circle><circle r="12" cx="283" cy="730" fill="hsl(282, 75%, 70%)" opacity="0.38"></circle><circle r="10" cx="407" cy="376" fill="hsl(237, 75%, 70%)" opacity="0.32"></circle><circle r="7.5" cx="36" cy="299" fill="hsl(263, 75%, 70%)" opacity="0.63"></circle><circle r="8" cx="542" cy="307" fill="hsl(209, 75%, 70%)" opacity="0.51"></circle><circle r="7.5" cx="46" cy="631" fill="hsl(261, 75%, 70%)" opacity="0.76"></circle><circle r="14.5" cx="422" cy="25" fill="hsl(333, 75%, 70%)" opacity="0.50"></circle><circle r="10" cx="227" cy="601" fill="hsl(290, 75%, 70%)" opacity="0.82"></circle><circle r="7" cx="589" cy="779" fill="hsl(200, 75%, 70%)" opacity="0.63"></circle><circle r="12.5" cx="375" cy="84" fill="hsl(315, 75%, 70%)" opacity="0.92"></circle><circle r="7" cx="54" cy="603" fill="hsl(260, 75%, 70%)" opacity="0.60"></circle><circle r="9" cx="15" cy="699" fill="hsl(266, 75%, 70%)" opacity="0.45"></circle><circle r="6.5" cx="13" cy="463" fill="hsl(266, 75%, 70%)" opacity="0.91"></circle><circle r="8.5" cx="636" cy="135" fill="hsl(211, 75%, 70%)" opacity="0.14"></circle><circle r="11.5" cx="159" cy="232" fill="hsl(276, 75%, 70%)" opacity="0.12"></circle><circle r="11" cx="256" cy="657" fill="hsl(288, 75%, 70%)" opacity="0.86"></circle><circle r="9.5" cx="345" cy="307" fill="hsl(258, 75%, 70%)" opacity="0.34"></circle><circle r="6" cx="755" cy="451" fill="hsl(256, 75%, 70%)" opacity="0.52"></circle><circle r="11" cx="176" cy="668" fill="hsl(283, 75%, 70%)" opacity="0.93"></circle></svg>