<svg xmlns="http://www.w3.org/2000/svg" version="1.1" xmlns:xlink="http://www.w3.org/1999/xlink" xmlns:svgjs="http://svgjs.dev/svgjs" viewBox="0 0 800 800"><defs><filter id="uuunion-blur" x="-100%" y="-100%" width="400%" height="400%" color-interpolation-filters="sRGB">
        <feGaussianBlur in="SourceGraphic" stdDeviation="0 3.5" result="blur"></feGaussianBlur>
        <feDropShadow stdDeviation="12.307692307692308" in="blur" dx="10" dy="10" flood-color="hsl(55, 94%, 54%)" flood-opacity="0" x="0%" y="0%" width="100%" height="100%"></feDropShadow>
      </filter><filter id="uuunion-blur2" x="-100%" y="-100%" width="400%" height="400%" color-interpolation-filters="sRGB">
        <feGaussianBlur in="SourceGraphic" stdDeviation="0 3.5" result="blur"></feGaussianBlur>
        <feDropShadow stdDeviation="12.307692307692308" in="blur" dx="-10" dy="-10" flood-color="hsl(55, 94%, 54%)" flood-opacity="0" x="0%" y="0%" width="100%" height="100%"></feDropShadow>
      </filter><linearGradient gradientTransform="rotate(2, 0.5, 0.5)" x1="50%" y1="0%" x2="50%" y2="100%" id="uuunion-grad"><stop stop-color="hsl(12, 99%, 67%)" offset="10%"></stop><stop stop-color="hsl(55, 94%, 54%)" offset="90%"></stop></linearGradient><linearGradient gradientTransform="rotate(135, 0.5, 0.5)" x1="50%" y1="0%" x2="50%" y2="100%" id="uuunion-grad2"><stop stop-color="hsl(12, 99%, 67%)" offset="25%"></stop><stop stop-color="hsl(55, 94%, 54%)" offset="100%"></stop></linearGradient><linearGradient gradientTransform="rotate(333, 0.5, 0.5)" x1="50%" y1="0%" x2="50%" y2="100%" id="uuunion-grad3"><stop stop-color="hsl(12, 99%, 67%)" offset="0%"></stop><stop stop-color="hsl(55, 94%, 54%)" offset="75%"></stop></linearGradient></defs><path d="M-79.62 -78.73Q-64.76 -76.45 -49.9 -74.41 -35.04 -72.78 -20.18 -71.66 -5.32 -71.13 9.53 -71.24 24.39 -71.97 39.25 -73.27 54.11 -75.05 68.97 -77.19 83.83 -79.52 98.69 -81.89 113.55 -84.13 128.41 -86.07 143.27 -87.57 158.13 -88.54 172.99 -88.89 187.85 -88.62 202.71 -87.72 217.57 -86.28 232.43 -84.39 247.29 -82.18 262.15 -79.82 277.01 -77.47 291.87 -75.3 306.73 -73.47 321.59 -72.1 336.45 -71.29 351.3 -71.11 366.16 -71.56 381.02 -72.61 395.88 -74.19 410.74 -76.18 425.6 -78.44 440.46 -80.82 455.32 -83.13 470.18 -85.23 485.04 -86.94 499.9 -88.17 514.76 -88.81 529.62 -88.82 544.48 -88.2 559.34 -87 574.2 -85.3 589.06 -83.22 603.92 -80.91 618.78 -78.53 633.64 -76.26 648.5 -74.26 663.36 -72.66 678.22 -71.59 693.08 -71.11 707.94 -71.28 722.8 -72.06 737.66 -73.41 752.52 -75.22 767.38 -77.38 782.24 -79.73 797.1 -82.09 811.96 -84.31 826.82 -86.21 841.68 -87.68 859.26 -81.35 857.26 -59.31 858.5 -44.51 865.36 -29.72 876.05 -14.93 887.77 -0.13 897.46 14.65 902.57 29.45 901.79 44.24 895.3 59.03 884.8 73.83 873.05 88.62 863.12 103.41 857.6 118.21 857.94 133 864.05 147.8 874.33 162.59 886.1 177.38 896.26 192.18 902.18 206.97 902.28 221.76 896.56 236.56 886.5 251.35 874.74 266.15 864.36 280.94 858.06 295.73 857.51 310.53 862.83 325.32 872.65 340.11 884.39 354.91 894.98 369.7 901.65 384.5 902.65 399.29 897.73 414.08 888.16 428.88 876.46 443.67 865.69 458.46 858.65 473.26 857.2 488.05 861.72 502.85 871.01 517.64 882.66 532.43 893.6 547.23 900.99 562.02 902.89 576.81 898.79 591.61 889.78 606.4 878.21 621.2 867.1 635.99 859.37 650.78 857.03 665.58 860.71 680.37 869.42 695.16 880.91 709.96 892.15 724.75 900.22 739.55 902.99 754.34 899.75 769.13 891.34 783.93 879.96 798.72 868.59 813.51 860.21 828.31 857 843.1 859.81 857.9 845.14 858.65 830.47 860.92 815.79 864.55 801.12 869.29 786.45 874.79 771.78 880.66 757.11 886.48 742.44 891.84 727.77 896.36 713.1 899.71 698.43 901.65 683.76 902.05 669.09 900.87 654.42 898.21 639.74 894.25 625.07 889.27 610.4 883.63 595.73 877.73 581.06 871.99 566.39 866.82 551.72 862.6 537.05 859.61 522.38 858.08 507.71 858.11 493.04 859.7 478.37 862.74 463.69 867.01 449.02 872.2 434.35 877.95 419.68 883.85 405.01 889.47 390.34 894.42 375.67 898.34 361 900.95 346.33 902.06 331.66 901.6 316.99 899.6 302.31 896.2 287.64 891.65 272.97 886.26 258.3 880.43 243.63 874.57 228.96 869.09 214.29 864.39 199.62 860.81 184.95 858.59 170.28 857.9 155.61 858.78 140.94 861.18 126.26 864.92 111.59 869.74 96.92 875.28 82.25 881.16 67.58 886.96 52.91 892.27 38.24 896.69 23.57 899.93 8.9 901.74 -5.76 902.01 -20.43 900.7 -35.1 897.92 -49.78 893.86 -64.45 888.81 -79.12 883.13 -79 868.1 -79.13 853.07 -79.5 838.04 -79.99 823.01 -80.49 807.98 -80.85 792.95 -80.99 777.92 -80.87 762.89 -80.52 747.86 -80.03 732.84 -79.54 717.81 -79.16 702.78 -79 687.75 -79.1 672.72 -79.43 657.69 -79.92 642.66 -80.42 627.63 -80.81 612.6 -80.99 597.57 -80.91 582.54 -80.59 567.51 -80.11 552.48 -79.6 537.46 -79.2 522.43 -79 507.4 -79.07 492.37 -79.37 477.34 -79.84 462.31 -80.35 447.28 -80.77 432.25 -80.98 417.22 -80.94 402.19 -80.65 387.16 -80.19 372.13 -79.68 357.1 -79.25 342.08 -79.02 327.05 -79.04 312.02 -79.32 296.99 -79.77 281.96 -80.28 266.93 -80.72 251.9 -80.96 236.87 -80.96 221.84 -80.7 206.81 -80.26 191.78 -79.75 176.75 -79.3 161.72 -79.04 146.7 -79.02 131.67 -79.26 116.64 -79.69 101.61 -80.2 86.58 -80.66 71.55 -80.94 56.52 -80.98 41.49 -80.75 26.46 -80.33 11.43 -79.82 -3.59 -79.36 -18.62 -79.06 -33.65 -79.01 -48.67 -79.21 -63.7 -79.62 -78.73" fill="url(#uuunion-grad)"></path><path d="M-79.62 -78.73Q-79.21 -63.7 -79.01 -48.67 -79.06 -33.65 -79.36 -18.62 -79.82 -3.59 -80.33 11.43 -80.75 26.46 -80.98 41.49 -80.94 56.52 -80.66 71.55 -80.2 86.58 -79.69 101.61 -79.26 116.64 -79.02 131.67 -79.04 146.7 -79.3 161.72 -79.75 176.75 -80.26 191.78 -80.7 206.81 -80.96 221.84 -80.96 236.87 -80.72 251.9 -80.28 266.93 -79.77 281.96 -79.32 296.99 -79.04 312.02 -79.02 327.05 -79.25 342.08 -79.68 357.1 -80.19 372.13 -80.65 387.16 -80.94 402.19 -70.7 404.88 -60.47 407.42 -50.23 409.72 -40 411.71 -29.76 413.32 -19.52 414.52 -0.34 415.43 2.97 415.49 15.61 408.65 28.12 401.08 40.48 392.87 52.68 384.1 64.72 374.92 76.6 365.46 88.37 355.9 100.04 346.39 111.68 337.09 123.34 328.16 135.06 319.72 146.93 311.87 158.98 304.68 171.26 298.2 183.83 292.42 196.68 287.32 209.84 282.82 223.29 278.84 237.01 275.26 250.94 271.94 265.02 268.73 279.18 265.49 293.33 262.06 307.38 258.31 321.24 254.12 334.82 249.39 348.04 244.06 360.85 238.09 373.19 231.47 385.04 224.23 396.42 216.43 407.33 208.14 417.85 199.49 428.04 190.58 438 181.56 447.84 172.56 457.7 163.72 467.7 155.16 477.96 147 488.63 139.31 499.79 132.17 511.54 125.61 523.94 119.64 537.03 114.24 550.79 109.35 565.2 104.9 580.19 100.8 595.66 96.93 611.47 93.18 627.49 89.42 643.55 85.53 659.47 81.39 675.08 76.9 690.22 71.99 704.74 66.59 718.53 60.66 731.49 54.21 743.58 47.25 754.77 39.82 765.12 31.99 774.68 23.84 783.57 15.47 791.95 6.99 800 -1.48 788.08 -18.94 780.37 -36.4 779.59 -53.87 786.03 -71.33 797.39 -88.8 809.68 -106.26 818.54 -123.73 820.86 -141.19 805.58 -139.05 790.3 -136.97 775.03 -135.11 759.75 -133.59 744.47 -132.52 729.2 -131.98 713.92 -132 698.64 -132.59 683.37 -133.7 668.09 -135.25 652.82 -137.13 637.54 -139.22 622.26 -141.36 606.99 -143.41 591.71 -145.21 576.43 -146.65 561.16 -147.62 545.88 -148.05 530.6 -147.91 515.33 -147.22 500.05 -146.02 484.77 -144.39 469.5 -142.45 454.22 -140.34 438.94 -138.21 423.67 -136.2 408.39 -134.46 393.12 -133.11 377.84 -132.24 362.56 -131.92 347.29 -132.17 332.01 -132.97 316.73 -134.26 301.46 -135.96 286.18 -137.94 270.9 -140.07 255.63 -142.19 240.35 -144.16 225.07 -145.83 209.8 -147.09 194.52 -147.86 179.25 -148.06 163.97 -147.71 148.69 -146.8 133.42 -145.42 118.14 -143.66 102.86 -141.63 87.59 -139.5 72.31 -137.39 57.03 -135.47 41.76 -133.87 26.48 -132.7 11.2 -132.05 -4.06 -131.95 -19.34 -132.42 -34.61 -133.43 -49.89 -134.89 -65.17 -136.72 -80.44 -138.77 -95.72 -140.92 -111 -143 -126.27 -144.86 -136.2 -132.85 -118.16 -114.2 -108.39 -105.47 -98.69 -96.62 -89.09 -87.7 -79.62 -78.73" fill="url(#uuunion-grad2)" filter="url(#uuunion-blur)"></path><path d="M819.76 397.7Q830 395.01 840.23 392.49 850.47 390.2 860.71 388.22 870.94 386.62 881.18 385.44 897.03 392.01 897.73 414.08 888.16 428.88 876.46 443.67 865.69 458.46 858.65 473.26 857.2 488.05 861.72 502.85 871.01 517.64 882.66 532.43 893.6 547.23 900.99 562.02 902.89 576.81 898.79 591.61 889.78 606.4 878.21 621.2 867.1 635.99 859.37 650.78 857.03 665.58 860.71 680.37 869.42 695.16 880.91 709.96 892.15 724.75 900.22 739.55 902.99 754.34 899.75 769.13 891.34 783.93 879.96 798.72 868.59 813.51 860.21 828.31 857 843.1 859.81 857.9 846.34 858.53 832.88 860.45 819.42 863.54 805.95 867.63 792.49 872.46 779.03 877.74 765.56 883.16 752.1 888.38 738.64 893.11 725.17 897.04 711.71 899.95 698.24 901.66 684.78 902.07 671.32 901.15 657.85 898.96 644.39 895.63 630.93 891.35 617.46 886.4 604 881.06 590.54 875.66 577.07 870.51 563.61 865.94 550.15 862.21 536.68 859.55 523.22 858.12 509.75 858.01 496.29 859.22 482.83 861.67 469.36 865.23 455.9 869.67 442.44 874.74 428.97 880.12 415.51 885.5 402.05 890.54 388.58 894.95 375.12 898.46 361.66 900.86 348.19 902.01 334.73 901.83 321.26 900.34 307.8 897.62 294.34 893.85 280.87 889.25 267.41 884.08 253.95 878.67 240.48 873.35 227.02 868.42 213.56 864.18 200.09 860.9 186.63 858.77 173.17 857.91 159.7 858.38 146.24 860.15 132.77 863.11 119.31 867.09 105.85 871.84 92.38 877.09 78.92 882.5 65.46 887.77 51.99 892.57 38.53 896.62 25.07 899.66 4.82 896.74 -1.95 881.82 -1.83 871.68 -1.62 861.54 -1.33 851.4 -1 841.27 -0.27 826.06 0.63 821 13.53 814.14 26.46 806.28 39.38 797.51 52.24 787.95 65.01 777.78 77.63 767.2 90.08 756.41 102.33 745.66 114.37 735.16 126.21 725.13 137.86 715.73 149.37 707.13 160.77 699.43 172.12 692.7 183.5 686.95 194.96 682.16 206.59 678.23 218.44 675.04 230.57 672.45 243.04 670.26 255.86 668.27 269.06 666.26 282.62 664.03 296.51 661.38 310.68 658.13 325.07 654.14 339.59 649.31 354.14 643.58 368.62 636.92 382.93 629.37 396.95 620.99 410.6 611.91 423.79 602.26 436.47 592.22 448.59 581.99 460.16 571.76 471.17 561.72 481.69 552.07 491.79 542.97 501.56 534.55 511.12 526.92 520.62 520.13 530.19 514.2 539.98 509.11 550.14 504.8 560.8 501.16 572.06 498.05 584.01 495.31 596.7 492.77 610.16 490.24 624.37 487.54 639.26 484.49 654.76 480.93 670.74 476.75 687.04 471.84 703.5 466.15 719.93 459.65 736.13 452.37 751.93 444.36 767.15 435.73 781.65 426.59 795.29 417.09 813.89 402.55 819.76 397.7" fill="url(#uuunion-grad3)" filter="url(#uuunion-blur2)"></path></svg>