<svg xmlns="http://www.w3.org/2000/svg" version="1.1" xmlns:xlink="http://www.w3.org/1999/xlink" viewBox="0 0 1422 200" style="overflow: hidden; display: block;" width="1422" height="200"><defs></defs><g id="two-0" transform="matrix(1 0 0 1 0 0)" opacity="1"></g><path d="M 129.15571797945657 302.3412850460371 Q 129.15571797945657 302.3412850460371 150.71883702690207 305.43098671367824 172.28195607434756 308.52068838131936 206.20313603731176 311.25407968782235 240.12431600027597 313.9874709943253 276.72339995413205 312.209554310744 313.3224839079881 310.43163762716273 346.61358488500315 310.2755725373439 379.9046858620182 310.1195074475251 425.8343134312327 310.5339808431627 471.76394100044723 310.94845423880025 506.77347440937217 310.91663553620657 541.7830078182972 310.8848168336129 584.8730310180715 310.6096860694587 627.9630542178459 310.3345553053045 669.1904307597586 310.0318499498901 710.4178073016712 309.7291445944757 746.62848625397 310.01213390011094 782.8391652062687 310.2951232057462 824.6696020233854 310.0688275741663 866.5000388405022 309.84253194258633 902.0757583762238 309.993504600292 937.6514779119454 310.14447725799766 970.1317573723838 310.02720667595673 1002.6120368328224 309.9099360939158 1038.8439753058794 310.2129173979022 1075.0759137789364 310.5158987018885 1110.7157076204699 309.3042016515535 1146.3555014620035 308.0925046012185 1179.4335723874533 307.217002370848 1212.511643312903 306.3415001404775 1235.096580150013 305.41554334921466 1257.6815169871231 304.48958655795184 1265.0680225787937 305.12810635597265 1272.4545281704643 305.76662615399346 1279.250462611361 308.730314306158 1286.0463970522578 311.6940024583225 1291.5402242124662 316.67256003276134 1297.0340513726746 321.65111760720015 1300.6505660982914 328.12328831165803 1304.2670808239081 334.59545901611597 1305.627633068494 341.883604869349 1306.98818531308 349.17175072258215 1305.950324897476 356.5128009298732 1304.912464481872 363.85385113716427 1301.58485566556 370.4791958039609 1298.2572468492485 377.10454047075757 1292.9882911537004 382.32050426152506 1287.7193354581523 387.53646805229255 1281.060693935561 390.7969381812568 1274.4020524129696 394.057408310221 1267.0508865884608 395.0210126941989 1259.6997207639522 395.98461707817677 1252.4256996398715 394.55046608379905 1245.1516785157908 393.1163150894213 1238.7163940239845 389.43456470437826 1232.2811095321783 385.75281431933524 1227.3583376576887 380.2089447808288 1222.435565783199 374.6650752423223 1219.5407220407708 367.8395311544733 1216.6458782983425 361.0139870666244 1216.0820535919722 353.6214046971994 1215.518228885602 346.2288223277745 1217.3444558108818 339.04320700230454 1219.1706827361618 331.8575916768346 1223.195754851938 325.6312792167146 1227.2208269677146 319.4049667565946 1233.0233181609497 314.789853719986 1238.825809354185 310.17474068337737 1245.798197265238 307.6540306234846 1252.7705851762912 305.1333205635917 1260.1828589503436 304.97093248908834 1267.595132724396 304.80854441458496 1274.671225340654 307.02148039973775 1281.7473179569122 309.23441638489055 1287.7463606505466 313.59098144789573 1293.745403344181 317.9475465109009 1298.039294761575 323.99160713964034 1302.3331861789688 330.0356677683797 1304.4723547552435 337.13440921954725 1306.6115233315184 344.2331506707148 1306.3719975520526 351.64333284048746 1306.1324717725868 359.0535150102602 1303.539330049719 365.9992898693647 1300.9461883268514 372.9450647284692 1296.270933283489 378.6992078156509 1291.5956782401267 384.45335090283254 1285.3278103134571 388.4134019179171 1279.0599423867875 392.3734529330017 1271.8557090032893 394.1247934893579 1264.6514756197912 395.87613404571414 1264.6583296109043 395.87561129881277 1264.6651836020171 395.8750885519114 1238.58841345746 396.1873569498576 1212.511643312903 396.49962534780377 1179.4335723874533 395.62412311743327 1146.3555014620035 394.74862088706277 1110.7157076204699 393.53692383672774 1075.0759137789364 392.32522678639276 1038.8439753058794 392.6282080903791 1002.6120368328224 392.93118939436545 970.1317573723838 392.8139188123245 937.6514779119454 392.6966482302836 902.0757583762238 392.84762088798925 866.5000388405022 392.9985935456949 824.6696020233854 392.772297914115 782.8391652062687 392.546002282535 746.62848625397 392.8289915881703 710.4178073016712 393.11198089380554 669.1904307597586 392.80927553839115 627.9630542178459 392.50657018297676 584.8730310180715 392.23143941882256 541.7830078182972 391.95630865466836 506.7734744015894 391.92448995201926 471.7639409848817 391.89267124937015 434.3466207283976 392.4497213479179 396.92930047191356 393.0067714464656 361.3805731302094 391.7352693198186 325.83184578850523 390.4637671931716 288.9474371428713 388.9693868669042 252.06302849723733 387.4750065406368 209.35442815633013 380.8752455512164 166.64582781542296 374.2754845617959 144.87144346778788 373.65054091998877 123.0970591201528 373.02559727818164 118.91197754688656 372.14958102958593 114.7268959736203 371.2735647809902 110.8730839224194 369.42141875091727 107.01927187121849 367.56927272084425 103.72071307956932 364.84864372358453 100.42215428792014 362.1280147263248 97.87056114777548 358.6970258470273 95.3189680076308 355.2660369677298 93.66263923218193 351.3240974412636 92.00631045673305 347.3821579147974 91.34151195223134 343.158373451652 90.67671344772963 338.93458898850656 91.04208333449213 334.67444614013357 91.40745322125466 330.4143032917606 92.78175618429593 326.3654017606694 94.1560591473372 322.3165002295782 96.45942063387392 318.71416236299274 98.76278212041063 315.1118244964072 101.86133065262231 312.16541834038844 104.959879184834 309.2190121843697 108.67352697644381 307.0997830031418 112.38717476805363 304.9805538219139 116.50008443492823 303.8116713150613 120.61299410180283 302.64278880820876 124.88612314085921 302.4921884819496 129.1592521799156 302.3415881556904 129.15748507968607 302.34143660086374 Z" fill="#F2B658"></path></svg>