<?xml version="1.0" encoding="UTF-8"?>
<svg id="Object" xmlns="http://www.w3.org/2000/svg" viewBox="0 0 1122 1122">
  <defs>
    <style>
      .cls-1 {
        font-family: CircularStd-Medium, 'Circular Std';
        font-size: 37px;
      }

      .cls-2 {
        stroke: #000;
        stroke-miterlimit: 10;
        stroke-width: 3px;
      }

      .cls-3 {
        letter-spacing: .35em;
      }

      .cls-4 {
        fill: #ffa711;
      }

      .cls-5 {
        letter-spacing: .36em;
      }

      .cls-6 {
        letter-spacing: .39em;
      }

      .cls-7 {
        letter-spacing: .32em;
      }

      .cls-8 {
        letter-spacing: .35em;
      }

      .cls-9 {
        letter-spacing: .38em;
      }

      .cls-10 {
        letter-spacing: .38em;
      }
    </style>
  </defs>
  <path class="cls-4" d="M391,664.47c3.46,0,7.1-1.51,9.55-3.95,2.34-2.34,4.1-6.18,3.95-9.55s-1.3-7.11-3.95-9.55-5.89-3.95-9.55-3.95c-3.46,0-7.1,1.51-9.55,3.95s-4.1,6.18-3.95,9.55c.16,3.49,1.3,7.11,3.95,9.55,2.64,2.42,5.89,3.95,9.55,3.95h0Z"/>
  <path class="cls-4" d="M878,664.47c3.46,0,7.1-1.51,9.55-3.95,2.34-2.34,4.1-6.18,3.95-9.55s-1.3-7.11-3.95-9.55-5.89-3.95-9.55-3.95c-3.46,0-7.1,1.51-9.55,3.95s-4.1,6.18-3.95,9.55c.16,3.49,1.3,7.11,3.95,9.55,2.64,2.42,5.89,3.95,9.55,3.95h0Z"/>
  <path d="M224.51,661v-106.29h40.5v-18.91h-40.5v-67.19h59.49v-18.61h-78.99v211c6.45,.07,13.07-.01,19.5,0Z"/>
  <path class="cls-2" d="M383.43,624c0-10-2.42-16.66-7.27-25.26-4.84-8.6-11.94-17.9-21.29-27.9-9.18,10-16.19,19.3-21.03,27.9-4.84,8.6-7.27,17.9-7.27,27.9v33.9h-16.57v-33.9c0-13,2.84-24.85,8.54-35.55,5.69-10.7,13.72-21.75,24.09-33.15-10.2-11-18.19-21.95-23.97-32.85-5.78-10.9-8.67-23.15-8.67-36.75v-38.7h16.57v38.7c0,10,2.29,19.35,6.88,28.05,4.59,8.7,11.73,18.25,21.42,28.65,4.93-5.2,9.05-9.95,12.37-14.25,3.31-4.3,6.25-8.75,8.8-13.35,2.55-4.6,4.42-9.3,5.61-14.1,1.19-4.8,1.79-9.8,1.79-15v-38.7h16.57v38.7c0,9.4-1.62,18.5-4.84,27.3-3.23,8.8-7.01,16.25-11.35,22.35-4.33,6.1-9.82,12.75-16.44,19.95,6.8,7.4,12.37,14.2,16.7,20.4,4.33,6.2,8.07,13.55,11.22,22.05,3.14,8.5,4.72,14.61,4.72,23.61"/>
  <path d="M421.7,660.54v-211.39h16.2c7.2-.2,12.95-.2,17.25,0,4.3,.2,9.65,.2,16.05,1.99,6.4,1.8,11.5,6.49,15.3,10.08,6,5.99,9,13.97,9,23.94v46.09c0,2-.15,4.09-.45,6.28-.3,2.2-.95,4.74-1.95,7.63-1,2.89-2.55,5.54-4.65,7.93-2.1,2.39-4.65,4.64-7.65,6.73-3,2.1-7,3.74-12,4.94-5,1.2-10.7,1.8-17.1,1.8h-10.5v93.97h-19.5Zm30-113.13c5.8,0,10.5-.55,14.1-1.65,3.6-1.09,6.05-2.69,7.35-4.79,1.3-2.1,2.15-3.74,2.55-4.94,.4-1.2,.6-2.79,.6-4.79v-46.09c0-4.59-1.2-7.88-3.6-9.88-4.2-4.19-14.7-6.18-31.5-5.99v77.81c3.8,.2,7.3,.3,10.5,.3Z"/>
  <path d="M514.2,660.54v-210.9h19.5v191.7h54.9v19.2h-74.4Z"/>
  <path d="M739,449c3,0,9,0,16.74,2.14,6.5,1.8,11.65,4.5,15.45,8.1,6,6,9,14,9,24v46.2c0,2.6-.25,5.2-.75,7.8-.5,2.6-1.5,5.55-3,8.85-1.5,3.3-3.95,6.4-7.35,9.3-3.4,2.9-7.6,5.15-12.6,6.75,8.2,8.6,14.2,19.8,18,33.6,11.8,43.2,21.9,71.2,30.3,84,2.4,3.6,5.65,6.45,9.75,8.55,4.1,2.1,8.25,2.95,12.45,2.55,8.8-.6,15.8-6.1,21-16.5l17.4,8.4c-8.4,17.2-20.7,26.4-36.9,27.6h-2.7c-7.4,0-14.45-1.8-21.15-5.4-6.7-3.6-12.05-8.4-16.05-14.4-5.6-8.6-10.9-19.95-15.9-34.05-5-14.1-10.6-32.65-16.8-55.65-5.6-20.4-15.6-32.2-30-35.4v95.56h-19.5l-.39-212h10m9.89,18.34v78c3.4,.2,6.9,.3,10.5,.3,5.8,0,10.5-.55,14.1-1.65,3.6-1.1,6.05-2.7,7.35-4.8,1.3-2.1,2.15-3.75,2.55-4.95,.4-1.2,.6-2.8,.6-4.8v-46.2c0-4.4-1.2-7.8-3.6-10.2-4.2-4.2-14.7-6.1-31.5-5.7Z"/>
  <path d="M808.79,518.59v-21.85c0-2.2,.15-4.75,.45-7.65,.3-2.9,1.5-7.45,3.6-13.65,2.1-6.2,5.15-11.3,9.15-15.3,6.6-6.8,15.2-10.2,25.8-10.2,6,0,11.4,1.1,16.2,3.3,4.8,2.2,8.65,5,11.55,8.4,2.9,3.4,5.35,7.25,7.35,11.55,2,4.3,3.35,8.4,4.05,12.3,.7,3.9,1.05,7.65,1.05,11.25v126.26s-19.2,0-19.2,0v-65.36h-5.7c-12.8,0-24.4-1.6-34.8-4.8v107.7h-19.5v-116.1m0-25.2v-.65m19.5,13.55c11.2,4.6,24.7,6.6,40.5,6v-41.4c0-1.6-.2-3.5-.6-5.7-.4-2.2-1.2-5.15-2.4-8.85-1.2-3.7-3.35-6.8-6.45-9.3-3.1-2.5-6.95-3.75-11.55-3.75-5,0-9,1.6-12,4.8-2,1.8-3.6,4.4-4.8,7.8-1.2,3.4-1.95,6.3-2.25,8.7-.3,2.4-.45,4.4-.45,6v35.7Z"/>
  <text class="cls-1" transform="translate(201.75 418.9)"><tspan class="cls-10" x="0" y="0">BÉN</tspan><tspan class="cls-9" x="114.59" y="0">É</tspan><tspan class="cls-5" x="150.29" y="0">V</tspan><tspan class="cls-10" x="188.4" y="0">O</tspan><tspan class="cls-6" x="232.28" y="0">L</tspan><tspan class="cls-7" x="267.4" y="0">A</tspan><tspan class="cls-10" x="305.4" y="0">TS</tspan></text>
  <text class="cls-1" transform="translate(708.75 418.37)"><tspan class="cls-3" x="0" y="0">R</tspan><tspan class="cls-8" x="35.82" y="0">OUEN</tspan></text>
  <path d="M222,642.36s36.74,0,36.75,0c15.67,0,29.94,8.85,39.84,20.7,4.69,5.62,8.41,12.03,13.41,17.38,7.4,7.92,17.59,11.33,28.27,9.17,8.74-1.78,21.35-7.21,24.74-14.6l3.94,2.24c4,2.28,8.45,3.64,12.68,5.45,0,0,.38,.26,.38,.26-.94,8.28-14.17,17.01-20.73,20.32-9.13,4.61-19.59,6.62-29.78,5.94s-19.78-3.96-27.64-10.22c-10.25-8.17-15.02-21.03-24.91-29.51-14.94-12.81-38.64-8.35-56.93-8.48"/>
  <path d="M640.16,385.25c-26.3,0-39.45,14.7-39.45,44.1v170.2c0,7.2,.2,13.3,.6,18.3,.4,5,1.35,10.35,2.85,16.05,1.5,5.7,3.6,10.3,6.3,13.8s6.55,6.45,11.55,8.85c5,2.4,11,3.6,18,3.6s13-1.2,18-3.6c5-2.4,8.9-5.35,11.7-8.85s4.95-8.1,6.45-13.8c1.5-5.7,2.45-11.05,2.85-16.05,.4-5,.6-11.1,.6-18.3v-170.2c0-29.4-13.15-44.1-39.45-44.1Zm19.95,214.3c0,8-.4,14.7-1.2,20.1-.8,5.4-1.65,9.5-2.55,12.3-.9,2.8-2.4,4.85-4.5,6.15-2.1,1.3-3.85,2.05-5.25,2.25-1.4,.2-3.55,.3-6.45,.3s-5.05-.1-6.45-.3-3.15-.95-5.25-2.25-3.65-3.35-4.65-6.15c-1-2.8-1.85-6.9-2.55-12.3-.7-5.4-1.05-12.1-1.05-20.1v-170.2c0-10.6,1.55-17.35,4.65-20.25,3.1-2.9,8.2-4.35,15.3-4.35s12.2,1.45,15.3,4.35,4.65,9.65,4.65,20.25v170.2Z"/>
</svg>