<?xml version="1.0" encoding="UTF-8"?><svg id="Calque_1" xmlns="http://www.w3.org/2000/svg" viewBox="0 0 1462.83 796.85"><defs><style>.cls-1{fill:#fe552f;}.cls-2,.cls-3,.cls-4,.cls-5,.cls-6{fill:#fff;}.cls-7{fill:#dbe5e5;}.cls-8{stroke:#dbe5e5;stroke-dasharray:0 15;}.cls-8,.cls-9,.cls-10,.cls-11,.cls-3,.cls-5,.cls-6{stroke-miterlimit:10;}.cls-8,.cls-9,.cls-10,.cls-11,.cls-3,.cls-5,.cls-6,.cls-12{stroke-width:5px;}.cls-8,.cls-9,.cls-10,.cls-11,.cls-12{fill:none;}.cls-8,.cls-10,.cls-4,.cls-6,.cls-12{stroke-linecap:round;}.cls-9{stroke:#b59b00;}.cls-10,.cls-4,.cls-5,.cls-6,.cls-12{stroke:#423c52;}.cls-13{fill:#e5f1ef;}.cls-11,.cls-3{stroke:#f2b658;}.cls-14{fill:#f2b658;}.cls-15{fill:#a0505a;}.cls-4{stroke-miterlimit:10;stroke-width:5px;}.cls-16{fill:#ffdb00;}.cls-17{fill:#423c52;}.cls-12{stroke-linejoin:round;}</style></defs><g id="_Слой_1"><g id="PLANTS"><path class="cls-7" d="M0,745.43c22.08-21.77,55.9-7.27,55.9-7.27,0,0-10.05-44.8,33.58-58.27,50.03-15.46,70.04,22.84,70.04,22.84,0,0,12.29-73.47,77.51-66.6,104.24,10.98,41.64,116.81,156.2,83.1,54.87-16.14,63.59,25.87,63.59,25.87l-456.82,.34Z"/><path class="cls-7" d="M1462.83,744.05l-563.95,.35c22.34-21.77,56.56-7.26,56.56-7.26,0,0-10.17-44.81,33.98-58.29,16.51-5.04,29.79-4.36,40.19-1.16,16.02,4.91,33.38-.99,43.09-14.64,10.55-14.7,30.03-27.96,66.01-27.96,30.71,0,54.44,16.92,80.69,33.55,7.34-9.39,19.82-15.54,33.95-15.54,22.6,0,40.9,15.72,40.9,35.12,0,3.77-.7,7.52-2.06,11.04,20.67,2.94,44.62,1.34,73.59-7.93,80.74-25.88,97.04,52.74,97.04,52.74Z"/><path class="cls-14" d="M207.66,789.73c0,3.94-17.97,7.12-40.13,7.12s-40.13-3.19-40.13-7.12c0-2.72,8.61-5.09,21.25-6.29l-10.68-18.8,17.84,10.6v-27.24l10.35,20.97,17.85-71.35-2.9,74.72,18.32-11.33-12.43,22.49c12.33,1.2,20.67,3.54,20.67,6.22Z"/><path class="cls-16" d="M1313.02,701.29l-91.84,.8c-1.79-.08-3.6-.25-5.42-.51-46.46-6.71-72.72-21.56-85.58-46.2-11.24,7.68-26.58,4.8-34.26-6.44-7.68-11.24-4.8-26.58,6.44-34.26,5.19-3.55,11.53-4.98,17.74-4-.21-7.65-.04-15.31,.52-22.95,4.43-64.45,37.2-111.01,87.58-112.69s92.75,42.03,94.92,106.59c.17,5.04,.08,10.06-.24,15.04,2.2-.33,4.42-.53,6.65-.6,30.44-1.02,59.53,21.71,60.5,50.76s-26.56,53.43-57,54.45Z"/><line class="cls-9" x1="1211.58" y1="533" x2="1211.58" y2="743.7"/><path class="cls-9" d="M1190.37,522.22v34.77c0,8.74,7.08,15.82,15.82,15.82h0c2.84,0,5.15,2.31,5.15,5.15h0"/><path class="cls-9" d="M1211.47,557.81c0-7.11,2.88-13.91,7.97-18.86l8.9-8.64"/><path class="cls-9" d="M1244.58,613.38l-14.92,11.82c-11.49,9.09-18.18,22.93-18.18,37.58"/><path class="cls-9" d="M1211.54,736.58c0-11.14,9.03-20.17,20.17-20.17h29.14c18.49,0,33.49-14.99,33.49-33.48v-33.8"/><path class="cls-9" d="M1315.19,658.17v5.9c0,4.9-3.97,8.88-8.88,8.88h-3.26c-4.9,0-8.88,3.97-8.88,8.88h0"/><path class="cls-14" d="M1294.27,653.04s-13.13-10-7.23-27.12c0,0,13.12,10.01,7.23,27.12Z"/><path class="cls-14" d="M1314.56,660.77s-5.86-22.67,12.13-20.25l-12.13,20.25Z"/><path class="cls-14" d="M1319.1,664.01s8.56-8.84,19.41,0c0,0-6.51,6.39-19.41,0Z"/><path class="cls-14" d="M1233.54,622.11s4.44-15.84,19.33-15.12c0,0-2.08,13.84-19.33,15.12Z"/><path class="cls-14" d="M1200.99,663.92s-16.27-6.19-13.74-21.97c0,0,12.17,1.53,13.74,21.97Z"/><path class="cls-14" d="M1202.21,719.03s-17.41,.12-20.76-15.52c0,0,11.9-2.98,20.76,15.52Z"/><path class="cls-14" d="M1219.44,538.95s.82-14.15,16.73-16.56c0,0,1.36,11.43-16.73,16.56Z"/><path class="cls-14" d="M1190.5,537.94s-2.81-23.38,1.2-30.01c0,0,12.05,10.36-1.2,30.01Z"/><path class="cls-14" d="M1181.94,538.95s-14.1-.17-14.34-16.56c0,0,10.12,2.51,14.34,16.56Z"/><path class="cls-14" d="M1267.84,776.02s-21.56,3.92-26.72-21.84c0,0,23.64,2.12,26.72,21.84Z"/><path class="cls-17" d="M1291.74,754.9s-10.62,11.61-26.48-1.14c0,0,14.84-9,26.48,1.14Z"/><path class="cls-14" d="M186.54,561.36c0,24.25-19.67,43.9-43.92,43.89-21.13,0-39.25-15.06-43.14-35.82-7.6,3.12-15.74,4.73-23.96,4.74-41.72,0-75.52-41.25-75.52-92.14s33.81-92.14,75.52-92.14,75.51,41.25,75.51,92.14c.03,12.07-1.93,24.06-5.81,35.49,23.21,1.36,41.33,20.59,41.32,43.84Z"/><ellipse class="cls-16" cx="59.76" cy="632.32" rx="31.84" ry="29.93"/><circle class="cls-14" cx="168.79" cy="502.54" r="10.02"/><line class="cls-10" x1="75.64" y1="446.6" x2="75.64" y2="744.57"/><path class="cls-10" d="M54.43,436.51v34.58c0,8.74,7.07,15.83,15.81,15.84h.01c2.84,0,5.15,2.3,5.15,5.15"/><path class="cls-10" d="M59.65,630.18v34.59c0,8.74,7.08,15.82,15.82,15.82h.18"/><path class="cls-10" d="M75.51,471.9c0-7.11,2.88-13.91,7.97-18.86l8.9-8.65"/><path class="cls-10" d="M108.61,527.47l-14.92,11.8c-11.49,9.09-18.19,22.93-18.18,37.58"/><path class="cls-10" d="M75.65,650.7c0-11.14,9.03-20.17,20.17-20.17h3.71c18.49,0,33.48-14.99,33.48-33.48h0v-33.98"/><path class="cls-10" d="M153.88,572.46v5.73c0,4.9-3.97,8.88-8.88,8.88h-3.26c-4.9,0-8.88,3.98-8.88,8.88h0"/><path class="cls-17" d="M132.87,567.13s-13.13-10-7.23-27.12c0,0,13.13,10.01,7.23,27.12Z"/><path class="cls-17" d="M153.16,574.84s-5.86-22.67,12.13-20.25l-12.13,20.25Z"/><path class="cls-17" d="M157.71,578.09s8.56-8.84,19.41,0c0,0-6.51,6.39-19.41,0Z"/><path class="cls-17" d="M97.57,536.2s4.44-15.84,19.33-15.11c0,0-2.07,13.84-19.33,15.11Z"/><path class="cls-17" d="M71.79,590.77s-17.17,2.88-22.95-12.03c-.01,0,11.27-4.83,22.95,12.03Z"/><path class="cls-17" d="M58.96,648.29s-12.99-1.68-13.91-13.68c0,0,9.19-1.02,13.91,13.68Z"/><path class="cls-17" d="M156.67,616.54s-12.61,11.99-25.75,2.88c0,0,6.64-10.32,25.75-2.88Z"/><path class="cls-17" d="M68.74,519.34s-17.41,.12-20.76-15.52c0,0,11.9-2.98,20.76,15.52Z"/><path class="cls-17" d="M83.48,453.04s.82-14.15,16.73-16.56c0,0,1.36,11.43-16.73,16.56Z"/><path class="cls-17" d="M54.53,452.03s-2.81-23.38,1.21-30.01c0,0,12.06,10.36-1.21,30.01Z"/><path class="cls-17" d="M45.98,453.04s-14.1-.17-14.34-16.56c0,0,10.13,2.51,14.34,16.56Z"/></g><g id="GROUND"><path class="cls-17" d="M498.97,745.43v-.38c0-10.38,8.25-18.78,18.44-18.78,3.71,0,7.33,1.13,10.38,3.26,.77-16.18,12.69-29.04,27.3-29.04,5.51,.02,10.85,1.84,15.23,5.2,2.58-17.8,18.61-31.49,37.98-31.49,21.18,0,38.35,16.38,38.35,36.57,0,1.6-.11,3.2-.33,4.78,1.29-.22,2.59-.33,3.89-.33,9.98,0,18.63,6.45,22.8,15.84l-.48,.13h19.13c2.32-14.75,13.79-25.95,27.6-25.95,12.43,0,22.96,9.08,26.64,21.65,3.93-2.32,8.4-3.55,12.95-3.55,7.1,0,13.57,2.96,18.52,7.85,3.53,3.53,6.19,7.86,7.75,12.62v1.64H498.97Z"/><circle class="cls-17" cx="710.67" cy="763.23" r="11.39" transform="translate(-156.53 1342.47) rotate(-80.78)"/><circle class="cls-17" cx="733.97" cy="755.91" r="4.54"/><circle class="cls-2" cx="708.44" cy="729.8" r="4.54"/><circle class="cls-2" cx="516.46" cy="737.39" r="3.02"/><circle class="cls-2" cx="588.76" cy="701" r="6.21"/></g><path id="CLOUD" class="cls-13" d="M270.18,105.46v.56h365.75c-.08-11.74-10.19-21.21-22.63-21.21h-35.9l.86-.19c-7.39-13.98-22.69-23.57-40.36-23.57-2.3,0-4.6,.16-6.88,.49,.38-2.35,.58-4.73,.58-7.11,0-30.05-30.4-54.42-67.89-54.42-34.29,0-62.66,20.4-67.23,46.88-8.06-5.08-17.42-7.76-26.96-7.73-25.86,0-46.98,19.13-48.33,43.21-5.58-3.21-11.92-4.88-18.37-4.84-18.01,0-32.62,12.5-32.62,27.94Z"/><g id="TREE"><line class="cls-10" x1="653.17" y1="744.23" x2="653.17" y2="169.13"/><path class="cls-10" d="M688.93,210.77l-31.43,76.7c-2.86,6.97-4.32,14.44-4.33,21.97v12.68"/><line class="cls-10" x1="674.35" y1="246.27" x2="696.51" y2="235.66"/><path class="cls-10" d="M639.41,203.6l10.91,23.5c1.88,4.05,2.85,8.46,2.85,12.92v12.55"/><path class="cls-10" d="M607.6,274.47l39.06,81.71c4.29,8.98,6.52,18.8,6.52,28.75v19.93"/><path class="cls-10" d="M721.31,402.11l-59.22,92.14c-5.82,9-8.92,19.49-8.92,30.2v18.11"/><path class="cls-17" d="M685.04,220.17s-6.77-23.47,18.78-32.95c0-.01,6.64,23.16-18.78,32.95Z"/><path class="cls-17" d="M612.87,311.75s-17.68,.64-22.66-18.32c0,0,18.81-2.25,22.66,18.32Z"/><path class="cls-17" d="M710.41,428.1s9.48-15.53,33.9-9.61c0,0-11.71,17.81-33.9,9.61Z"/><path class="cls-17" d="M649.55,223.78s-12.74,10.43-25.52-4.61c0,0,16.31-7.23,25.52,4.61Z"/><path class="cls-17" d="M614.54,288.03s-13.09-14.15-.23-36.06c0,.01,15.75,14.3,.23,36.06Z"/><path class="cls-17" d="M682.23,464.21s7.65-18.89,37.69-16.83c0,0-10.67,20.95-37.69,16.83Z"/><path class="cls-14" d="M662.27,175.16c0,6.03-4.08,10.93-9.1,10.93s-9.1-4.9-9.1-10.93,9.1-30.18,9.1-30.18c0,0,9.1,24.14,9.1,30.18Z"/><path class="cls-14" d="M644.86,215.4s-21.06-6.02-14.31-31.4c0,0,20.27,12.35,14.31,31.4Z"/><path class="cls-14" d="M612.87,287.38s-18.22-8.09-17.26-33.48c0,0,20.63,6.96,17.26,33.48Z"/><path class="cls-14" d="M636.01,313.52s-12.05-13.66-2.73-32.3c0,0,12.53,15.91,2.73,32.3Z"/><path class="cls-14" d="M683.38,442.32s-12.99-24.5,8.69-41.54c.02,0,10.56,22.81-8.69,41.54Z"/><path class="cls-14" d="M711.93,417.14s-2.65-27.12,18.89-35.81c0,.01,5.94,22.92-18.89,35.81Z"/><path class="cls-14" d="M682.23,464.21s14.4-13.85,44.05-3.77c0,0-18.02,15.01-44.05,3.77Z"/><path class="cls-14" d="M688.49,239.5s4.56-17.42,26.25-12.43c0,0-6.71,16.84-26.25,12.43Z"/><path class="cls-14" d="M685.12,219.66s4.56-17.42,26.25-12.43c.01,0-6.71,16.83-26.25,12.43Z"/></g><g id="HEAD"><path id="HAIR" class="cls-16" d="M863.4,392.16c6.02,22.95-16.71,21.46-10.8,39.29,5.91,17.83,40.71,8.65,40.71,8.65l-1.3-47.93-28.6-.02Z"/><g id="NECK"><polygon class="cls-15" points="888.04 422.33 888.15 439.12 925.1 439.12 915.32 411.79 888.04 422.33"/><polygon class="cls-17" points="915.48 412.62 888.04 439.21 887.95 422.41 915.22 411.87 915.48 412.62"/></g><g id="HAIR-2"><path class="cls-16" d="M863.4,392.09c-2-2.84-3.86-13.66,12.05-20.73,15.91-7.07,24.91-9.65,41.14,2.57s37.28,22.82,37.6,45.96-20.86,29.73-40.14,27.32c-19.28-2.41-20.41-25.14-8.09-31.64l-11.59-20.57s-23.73,7.37-30.97-2.91Z"/><circle class="cls-16" cx="968.91" cy="426.53" r="7.26"/></g><g id="HEAD-2"><path class="cls-15" d="M863.52,392.27c12.01,8.28,26.87,3.82,26.87,3.82l8.46-2.36c6.13-1.72,12.49,1.85,14.22,7.97,1.6,5.68-1.35,11.65-6.83,13.83l-18.65,7.23c-7.29,2.82-15.49-.8-18.32-8.09-.2-.53-.38-1.06-.52-1.61l-.77-3.01-2.78,.59c-1.06,.23-2.11-.45-2.34-1.51-.04-.17-.05-.34-.04-.52l.7-16.35Z"/><ellipse class="cls-17" cx="873.23" cy="404.06" rx="1.52" ry="2.65" transform="translate(-85.16 318.68) rotate(-19.74)"/><path class="cls-10" d="M904.24,397.24c-3.6,.88-5.75,4.67-4.83,8.48"/></g></g><g id="HAND"><path class="cls-15" d="M834.83,570.14c-7.85,8.31-16.32,17.28-25.03,26.47-9.93,10.48-20.17,21.25-30.07,31.64-32.36,33.94-61.42,63.95-66.22,67.4-11.57,8.31-30.73,20.62-66.53,20.6-9.16,0-25.5-16.83-33.84-26.15-1.27-1.44-1.13-3.64,.32-4.91,.64-.57,1.47-.87,2.33-.86,12.86,.23,30.56-1.27,34.77-7.5,7.59-11.21-17.68-5.06-16.96-15.91,0,0,32.54-5.06,43.02-14.22,4.2-3.67,55.56-68.98,99.53-125.21h0s2.92,25.92,58.68,48.64Z"/><path class="cls-10" d="M667.56,705.56c-9.36,2.71-19.62,4.52-33.38,4.52"/><path class="cls-10" d="M660.28,697.93c-9.36,2.71-20.32,4.52-34.07,4.52"/><path class="cls-10" d="M653.03,690.32c-9.36,2.71-20.67,4.52-34.42,4.52"/><path class="cls-10" d="M778.63,627.89c-2.81-3.98-4.31-8.74-4.29-13.62,0-12.52,9.58-22.66,21.41-22.66,4.72,0,9.3,1.64,12.96,4.62"/></g><g id="BLOUSE"><path class="cls-17" d="M1080.67,590.14l-.35,.06c.14,42.62-165.79-5-165.79-5,0,0,164.81-28.09,166.13,4.64v.3Z"/><path class="cls-5" d="M1079.41,589.04c-1.11-31.13-164.51-4.42-164.51-4.42l-30.97-49.95c-2.66-4.28-8.28-5.59-12.56-2.93-.67,.42-1.29,.92-1.83,1.5-7.65,8.14-20.09,21.37-34.72,36.86-55.75-22.72-58.66-48.64-58.66-48.64,15.45-19.76,29.99-38.4,41.25-52.85,14.08-18.07,35.7-28.63,58.6-28.63h79.12c21.72,0,42.08,10.56,54.59,28.31,26.35,37.42,69.28,100.91,69.69,120.74Z"/></g><g id="PANTS"><path class="cls-1" d="M1052.95,576.61s4.17,8.79,8.23,24.46c5.62,21.71,8.96,51.21-8.58,64-28.86,21.04-150.65,13.5-150.65,13.5v66.53h-68.19c-32.89,0-59.54-26.66-59.54-59.54,0-22.46,12.63-43,32.67-53.13,36.25-18.33,92.14-44.71,108.18-47.04l137.87-8.77Z"/><path class="cls-12" d="M1024.67,586.88c10.56,34.7,11.4,74.71-8.57,89.21"/><path class="cls-17" d="M1059.05,592.85c-32.54-9.84-129.34-9.98-143.79-7.48,90.51-15.7,137.97-9.23,137.97-9.23,0,0,4.61,7.7,5.82,16.71Z"/><line class="cls-12" x1="847.89" y1="676.77" x2="898.65" y2="676.77"/><polygon class="cls-12" points="1004.35 642.23 982.79 656.76 961.24 642.23 961.24 610.36 1004.35 610.36 1004.35 642.23"/><polyline class="cls-12" points="1061.63 652.54 1048.16 642.23 1048.16 610.36 1062.42 610.36"/></g><g id="RIGHT"><path class="cls-17" d="M1097.69,759.58l-27.82-14.14c-3.5-1.15-7.17-1.74-10.85-1.74h-112.4c-.06,0-.13,0-.19,0-7.15-.26-12.91-15.07-12.91-33.29s5.86-33.3,13.1-33.3c.23,0,.47,.02,.7,.05l116.25-2.83,53.98,85.81s-10.96,4.08-19.86-.56Z"/><path class="cls-3" d="M1106.44,706.38c15.13,21.76,21.18,47.03,14.56,51.7-8.28,5.82-31.41-8.19-47.01-31.04-15.6-22.84-25.65-48.51-8.24-52.57,9.85-2.29,23.67,7.43,40.69,31.9Z"/><line class="cls-11" x1="1057.72" y1="693.11" x2="1096.32" y2="693.11"/><line class="cls-11" x1="1056.68" y1="684.42" x2="1088.32" y2="684.42"/><line class="cls-11" x1="1059.81" y1="701.11" x2="1102.57" y2="701.11"/><line class="cls-11" x1="1063.28" y1="708.76" x2="1108.14" y2="708.76"/><line class="cls-11" x1="1067.46" y1="716.41" x2="1112.66" y2="716.41"/><line class="cls-11" x1="1072.67" y1="724.41" x2="1116.48" y2="724.41"/><polyline class="cls-11" points="1077.89 732.06 1118.66 732.06 1119.61 732.06"/><line class="cls-11" x1="1084.15" y1="739.71" x2="1122.05" y2="739.71"/><line class="cls-11" x1="1092.49" y1="747.36" x2="1123.09" y2="747.36"/></g><path class="cls-14" d="M1050.9,762.04l-36.5-15.2c-3.51-1.15-7.19-1.74-10.88-1.74h-112.66c-.06,0-.13,0-.19,0-7.17-.26-12.94-15.1-12.94-33.37s6.97-34.55,13.88-36.17h116.48l55.65,84.35c1.45,2.48-7.79,4.47-12.84,2.13Z"/><path class="cls-2" d="M898.94,745.1h-3.39c-5.66-4.91-9.76-18.63-9.76-34.59s4.53-29.94,10.46-34.95h3.45c-5.86,1.74-12.15,16.38-12.15,34.95-.01,19.03,5.8,32.85,11.39,34.59Z"/><path class="cls-3" d="M1049.79,708.32c15.13,21.76,21.18,47.03,14.56,51.7-8.28,5.82-31.41-8.19-47.01-31.04-15.6-22.85-25.65-48.51-8.24-52.57,9.85-2.29,23.67,7.43,40.69,31.9Z"/><path class="cls-2" d="M1044.27,759.15l-9.97-4.15c-9.4-6.54-17.54-14.72-24.03-24.15-12.94-18.95-18.83-38.71-14.67-49.16,.95-2.52,2.68-4.67,4.94-6.13h4.32c-3.68,1.01-6.24,3.29-7.63,6.77-3.96,9.94,1.86,29.04,14.49,47.54,9.19,13.49,21.96,23.93,32.56,29.28Z"/><line class="cls-11" x1="1000.7" y1="683.38" x2="1028.17" y2="683.38"/><line class="cls-11" x1="1000" y1="691.03" x2="1036.16" y2="691.03"/><line class="cls-11" x1="1001.39" y1="698.68" x2="1042.08" y2="698.68"/><line class="cls-11" x1="1004.18" y1="706.33" x2="1048.68" y2="706.33"/><line class="cls-11" x1="1008.35" y1="714.32" x2="1053.9" y2="714.32"/><line class="cls-11" x1="1012.52" y1="721.97" x2="1057.72" y2="721.97"/><line class="cls-11" x1="1018.08" y1="729.62" x2="1061.55" y2="729.62"/><line class="cls-11" x1="1023.65" y1="737.62" x2="1063.98" y2="737.62"/><line class="cls-11" x1="1030.25" y1="745.27" x2="1066.41" y2="745.27"/><line class="cls-11" x1="1039.99" y1="752.92" x2="1067.11" y2="752.92"/><g id="GIRL"><g id="SHOES-2"><g id="RIGHT-2"><path class="cls-5" d="M412.8,763h-77.86s-19.82-5.82-18.08-35.32c.59-9.89,2.71-21.42,5.83-35.81l.08-1.08c23.26,.98,48.24,.18,71.59-4.21-3.91,20.2-5.78,35.96-3.98,43.65,3.62,15.44,22.42,32.78,22.42,32.78Z"/><path class="cls-17" d="M394.33,686.86l-4.46,30.68s-47.41-3.64-68.71-18.21l1.53-8.47h.21c23.28,.98,48.24,.25,71.42-4Z"/><path class="cls-5" d="M415.88,766.13c0,1.73-1.4,3.13-3.13,3.13,0,0-.01,0-.02,0h-77.78c2.13,0,3.76-2.11,2.91-4.35-.45-1.17-1.61-1.91-2.87-1.91h-.04s77.79,0,77.79,0c1.72,0,3.12,1.4,3.13,3.13Z"/></g><g id="LEFT-2"><path class="cls-5" d="M334.94,763h-83.7c-5.98,0-10.82-4.85-10.82-10.83,0-.9,.11-1.8,.34-2.67l15.94-65.94c16.99,2.92,40.49,6.13,66.06,7.21l-.08,1.08c-3.13,14.4-5.25,25.93-5.83,35.81-1.74,29.51,18.09,35.33,18.09,35.33Z"/><path class="cls-17" d="M322.69,690.76l-4.83,26.68s-37.43-7.02-62.45-28.59l1.28-5.29c16.76,2.88,40.16,6.05,65.64,7.17l.36,.04Z"/><path class="cls-5" d="M338.56,766.13c0,1.73-1.4,3.13-3.13,3.13h-92.13c-1.95,.21-3.66-1.41-3.46-3.47,.07-.7,.38-1.37,.88-1.87,.72-.71,1.67-1.02,2.58-.92h92.14c1.72,.01,3.11,1.41,3.12,3.13Z"/></g></g><path id="RIGHT_HAND" class="cls-15" d="M424.85,357.98l-27.59-87.76c7.83,1.28,32.79,4.74,59.17,71.43,5.01,12.67,54.38,126.75,54.38,126.75,0,0,4.08,22.44-16.15,21.91-10.86-.32-62.3-93.99-69.81-132.32Z"/><g id="CLOTHES"><path class="cls-16" d="M441,482.82c-4.27,42.01-33.77,143.07-45.55,203.9-49.03,9.23-106.32,2.57-138.73-3-16.31-2.8-26.61-5.33-26.96-5.41h0c2.29-66.93,43.49-114.87,58.58-221.28,8.41-59.34,7.65-122.34,7.41-163.12-.07-14.21,11.39-25.79,25.6-25.86,.04,0,.09,0,.13,0h63.66c13.94,0,26.36,8.81,30.98,21.95,11.47,32.62,34.28,100.26,24.88,192.82Z"/><path class="cls-10" d="M377.83,471.45c-5.02,47.43-44.61,151.66-54.56,222.18"/></g><g id="WATERING_POT"><path class="cls-6" d="M482.55,494.15l-71.12-20.51c-12.56-3.62-19.81-16.74-16.19-29.3,.34-1.19,.78-2.35,1.3-3.47l42.38-90.71,85.34,24.8-11.67,99.36c-1.61,12.97-13.43,22.18-26.41,20.57-1.23-.15-2.44-.4-3.63-.74Z"/><path class="cls-6" d="M524.26,374.98c-2.71,9.41-23.45,11.47-47.21,4.64-23.77-6.83-40.83-20.03-38.12-29.45s24.18-11.47,47.94-4.64c23.77,6.84,40.11,20.03,37.39,29.44Z"/><ellipse class="cls-17" cx="481.4" cy="362.48" rx="14.33" ry="40.14" transform="translate(-.23 724.64) rotate(-73.92)"/><polygon class="cls-6" points="564.36 397.33 561.49 407.28 548.88 425.09 512.09 477.08 517.86 432.12 546.69 410.54 564.36 397.33"/><path class="cls-17" d="M564.36,397.33l-2.87,9.95-12.61,17.81c-2.06-4.13-2.93-9.22-2.19-14.55l17.67-13.21Z"/><ellipse class="cls-4" cx="568.25" cy="404.65" rx="21.86" ry="17.7" transform="translate(86.78 909.46) rotate(-81.81)"/><ellipse class="cls-4" cx="570.34" cy="394.2" rx="2.14" ry="1.73" transform="translate(98.91 902.56) rotate(-81.81)"/><ellipse class="cls-4" cx="567.07" cy="414.91" rx="2.14" ry="1.73" transform="translate(75.61 917.09) rotate(-81.81)"/><ellipse class="cls-4" cx="568.88" cy="404.74" rx="2.14" ry="1.73" transform="translate(87.23 910.16) rotate(-81.81)"/><ellipse class="cls-4" cx="577.24" cy="400.38" rx="2.14" ry="1.73" transform="translate(98.71 914.69) rotate(-81.81)"/><ellipse class="cls-4" cx="575.78" cy="410.91" rx="2.14" ry="1.73" transform="translate(87.04 922.29) rotate(-81.81)"/><ellipse class="cls-4" cx="561.62" cy="398.2" rx="2.14" ry="1.73" transform="translate(87.48 897.36) rotate(-81.81)"/><ellipse class="cls-4" cx="560.16" cy="408.73" rx="2.14" ry="1.73" transform="translate(75.8 904.96) rotate(-81.81)"/><path class="cls-10" d="M438.56,350.54l-17.17-5.42c-20.33-5.86-39.76,11.63-36.07,32.46l11.22,63.3,42.02-90.35Z"/><path class="cls-8" d="M577.13,400.34c12.81,0,23.19,10.38,23.19,23.19v245.59"/><path class="cls-8" d="M570.77,394.09h17.46c15.13,0,27.39,12.26,27.4,27.39h0v250.08"/><path class="cls-8" d="M576.08,410.88c4.21,.42,7.2,7.84,7.2,20.64l.35,245.94"/><line class="cls-8" x1="566.94" y1="414.96" x2="566.94" y2="698.68"/></g><g id="RIGHT_ARM"><path class="cls-15" d="M529.83,431.79s7.11,13.5,5.91,23.38c-1.2,9.89-16.1,27.36-32.34,35.12,0,0,9.92-6.05,4.13-26.77-2.94-10.53,22.29-31.73,22.29-31.73Z"/><path class="cls-10" d="M526.19,440.51s5.3,14.95,4.09,24.84"/><path class="cls-10" d="M520.02,448.14s5.3,14.95,4.09,24.84"/><path class="cls-10" d="M513.12,455.04s5.3,14.95,4.09,24.84"/></g><g id="LEFT_HAND"><path class="cls-15" d="M434.94,514.34c-12.83-4.44-52.96-31.89-87.66-80.24-8.52-11.85-16.3-24.22-23.3-37.03-14.75-27.02-26.89-57.94-33.13-92.05-2.87-15.67,2.68-25.01,10.17-30.4,14.98-10.78,36.16-3.98,42.58,13.32,16.25,43.81,58.43,146.38,106.33,175.07,9.74,5.82-18.36,4.44-20.25,6.71-3.54,4.25,9.26,11.68,42.77,20.42,7.75,2.02-30.33,26.67-37.51,24.19Z"/><path class="cls-10" d="M437.16,487.57c7.09,3.08,15.47,6.18,30.95,9.12"/><path class="cls-10" d="M430.25,493.38c7.09,3.08,15.1,5.82,30.57,8.76"/><path class="cls-10" d="M422.26,499.55c7.09,3.08,11.82,6.18,27.3,9.12"/><path class="cls-10" d="M325.06,396.71c1.1-.68,2.27-1.22,3.5-1.61,9.71-3.07,20.59,3.96,24.3,15.7,2.78,8.78,.76,17.71-4.52,22.95"/></g><g id="HEAD-3"><g id="NECK-2"><path class="cls-15" d="M382.82,268.05c.01,.42-.02,.85-.09,1.26-.47,2.88-3.18,9.68-18.1,9.46-18.92-.26-17.91-10.73-17.91-10.73l11.03-21.91h29.6l-4.52,21.91Z"/><path class="cls-17" d="M382.82,268.05l4.52-21.91h-22.6s-.04,16.72,18.08,21.91Z"/></g><g id="HAIR-3"><path class="cls-1" d="M397.69,217.26c-1.58-4.49-5.91-5.52-6.07-5.58,.07,.14,1.63,3.55-5.32,11.08-7.09,7.69-21.66,4.26-21.66,4.26h-7.85c-3.81,0-7.21,2.39-8.52,5.96h0c-.37,1-.56,2.06-.55,3.13v.48c-2.26,8.13-10.91,15.71-22.54,18.75-15.3,4-29.94-1.39-32.72-12-2.77-10.61,7.36-22.48,22.66-26.48,11.57-3.02,22.78-.7,28.75,5.25-.78-14.6,8.24-26.46,23.64-26.22,25.67,.4,31.11,24.02,30.17,21.38Z"/><circle class="cls-1" cx="277.41" cy="246.11" r="8.17"/></g><path id="HEAD-4" class="cls-15" d="M389.17,257.83c-12.76,2.75-24.38-11.69-24.38-11.69h-7.91c-5.05,0-9.15-4.09-9.16-9.14v-.82c0-5.06,4.1-9.16,9.16-9.16h7.91s14.69,3.46,21.84-4.3c7.01-7.6,5.43-11.03,5.36-11.17,.64,.19,1.26,.42,1.86,.7,1.89,.89,3.35,2.7,4.41,5.12,5.23,11.86,.89,38.3-9.09,40.46Z"/><g id="FACE"><path class="cls-10" d="M362.35,238.28c0-3.73-3.03-6.76-6.76-6.76h0"/><path class="cls-10" d="M400.17,228.87s-9.95-.35-9.95,16.59"/><ellipse class="cls-17" cx="396.33" cy="237.23" rx="2.22" ry="1.27" transform="translate(71.01 565.13) rotate(-76.13)"/><ellipse class="cls-17" cx="380.61" cy="236.73" rx="2.41" ry="1.38" transform="translate(59.55 549.49) rotate(-76.13)"/></g></g></g></g></svg>